<svg width="505" height="249" viewBox="0 0 505 249" fill="none" xmlns="http://www.w3.org/2000/svg">
<g clip-path="url(#clip0)">
<path d="M30.0677 175.425C-132.318 -7.60054 465.5 -64 495.303 93.4828C513.095 187.495 387.607 212.657 294.265 233.318C191.137 256.145 102 256.5 30.0677 175.425Z" fill="#29AAE1"/>
<path d="M81.0066 161.638H53.9652V169.882H81.0066V161.638Z" fill="#CDCDCD"/>
<path d="M283 136V172H169" stroke="white" stroke-width="1.26"/>
<path d="M349.736 49.4299H202.88V118.342H349.736V49.4299Z" fill="url(#paint0_linear)"/>
<path d="M314.788 104.163C326.905 104.163 336.727 94.3456 336.727 82.235C336.727 70.1244 326.905 60.3068 314.788 60.3068C302.672 60.3068 292.85 70.1244 292.85 82.235C292.85 94.3456 302.672 104.163 314.788 104.163Z" fill="#ECECEC"/>
<path d="M336.727 82.235C336.727 87.2084 335.036 92.034 331.93 95.92C328.825 99.806 324.49 102.521 319.638 103.621C314.785 104.72 309.703 104.138 305.224 101.97C300.746 99.8018 297.139 96.1766 294.993 91.6892C292.848 87.2018 292.293 82.1188 293.418 77.2743C294.544 72.4298 297.284 68.1118 301.188 65.0287C305.092 61.9456 309.929 60.2806 314.905 60.3071C319.881 60.3335 324.7 62.0498 328.571 65.1743L314.788 82.235H336.727Z" fill="#29AAE1"/>
<path d="M242.96 73.1899H215.919V81.4344H242.96V73.1899Z" fill="#ECECEC"/>
<path d="M242.96 85.7576H215.919V94.002H242.96V85.7576Z" fill="#ECECEC"/>
<path d="M279.136 60.6222H252.095V68.8666H279.136V60.6222Z" fill="#ECECEC" fill-opacity="0.607595"/>
<path d="M279.136 98.3252H252.095V106.57H279.136V98.3252Z" fill="#ECECEC" fill-opacity="0.607595"/>
<path d="M81.0066 174.206H53.9652V182.45H81.0066V174.206Z" fill="#CDCDCD"/>
<path d="M81.0066 149.07H53.9652V157.315H81.0066V149.07Z" fill="white"/>
<path d="M243.517 95.6053L252.249 100.536C252.682 96.3887 256.664 96.9432 260.817 88.6586C260.422 84.7469 259.528 82.9973 257.41 81.7382C259.321 79.2354 264.412 73.6144 260.357 74.2449C258.08 74.5407 252.713 83.1072 252.713 83.1072C252.713 83.1072 253.57 76.9924 251.572 76.9997C249.574 77.0071 245.859 88.7143 245.884 92.4711C244.809 94.56 244.105 94.659 243.517 95.6053Z" fill="#FE9DAF"/>
<path d="M81.0066 186.773H53.9652V195.018H81.0066V186.773Z" fill="white"/>
<path d="M155.469 161.638H86.0254V169.882H155.469V161.638Z" fill="#CDCDCD"/>
<path d="M155.469 174.206H86.0254V182.45H155.469V174.206Z" fill="#CDCDCD"/>
<path d="M155.469 149.07H86.0254V157.315H155.469V149.07Z" fill="white"/>
<path d="M155.469 186.773H86.0254V195.018H155.469V186.773Z" fill="white"/>
<path d="M179.824 138.326C179.824 138.326 183.126 136.26 183.203 131.177C183.279 126.093 171.534 122.004 162.726 122.771C153.919 123.537 145.331 130.762 146.09 144.699C146.848 158.636 154.865 166.079 154.865 166.079L156.528 161.798L166.931 164.252C171.294 164.695 181.188 149.332 179.824 138.326Z" fill="#221A41"/>
<path d="M179.824 138.326C182.543 144.554 192.866 159.94 176.658 162.649L176.721 176.573C159.417 174.686 158.379 176.436 151.232 176.756L156.528 161.798C176.658 162.649 173.138 149.88 169.482 145.562C165.825 141.243 172.831 138.082 175.687 141.427C178.543 144.771 179.012 140.776 179.824 138.326V138.326Z" fill="#FF9BAD"/>
<path d="M151.632 8H20V60.6277H151.632V8Z" fill="url(#paint1_linear)"/>
<path d="M49.9655 34.5547C52.5361 34.5547 54.62 32.4719 54.62 29.9025C54.62 27.3331 52.5361 25.2502 49.9655 25.2502C47.3949 25.2502 45.311 27.3331 45.311 29.9025C45.311 32.4719 47.3949 34.5547 49.9655 34.5547Z" fill="white"/>
<path d="M49.9656 36.7261C47.3346 36.7282 44.7643 37.5168 42.5852 38.9905C40.4062 40.4643 38.718 42.5558 37.7377 44.9962H62.1971C61.2165 42.5552 59.5278 40.4633 57.348 38.9895C55.1683 37.5157 52.5972 36.7275 49.9656 36.7261Z" fill="white"/>
<path d="M106.464 23.254H79.4223V31.4985H106.464V23.254Z" fill="#ECECEC" fill-opacity="0.607595"/>
<path d="M138.64 39.3347H79.4223V47.5791H138.64V39.3347Z" fill="#ECECEC" fill-opacity="0.607595"/>
<path d="M68 70V99H186" stroke="white" stroke-width="1.26"/>
<path fill-rule="evenodd" clip-rule="evenodd" d="M106.697 231.169C100.889 228.802 95.1609 226.131 89.5128 223.135C100.952 205.244 116.916 185.732 135.353 177.348C151.924 169.813 169.748 173.448 187.715 177.112C188.101 177.191 188.487 177.27 188.873 177.348C211.976 157.598 224.854 131.538 237.259 106.433C239.739 101.415 242.2 96.4346 244.72 91.5507C244.928 91.6497 245.165 91.7576 245.425 91.8759C247.653 92.8909 251.556 94.6688 253.64 98.1405C248.683 140.604 230.037 187.057 205.162 203.708C204.431 216.497 204.163 228.888 203.91 240.593C203.869 242.502 203.828 244.393 203.785 246.265C175.382 247.35 148.337 244.762 122.739 236.887C125.06 227.032 127.946 217.66 131.216 210.685C120.73 217.464 113.458 224.331 106.697 231.169Z" fill="url(#paint2_linear)"/>
<path d="M407.821 62.6293C414.901 62.6293 420.642 56.892 420.642 49.8146C420.642 42.7373 414.901 37 407.821 37C400.74 37 395 42.7373 395 49.8146C395 56.892 400.74 62.6293 407.821 62.6293Z" fill="white"/>
<path d="M381.821 29.6293C388.901 29.6293 394.641 23.892 394.641 16.8146C394.641 9.73731 388.901 4 381.821 4C374.74 4 369 9.73731 369 16.8146C369 23.892 374.74 29.6293 381.821 29.6293Z" fill="#FF9BAD"/>
<path d="M399 202H253V247H399V202Z" fill="url(#paint3_linear)"/>
<path d="M361 157H337V165H361V157Z" fill="#CDCDCD"/>
<path d="M379 169H337V177H379V169Z" fill="#CDCDCD"/>
<path d="M361 144H337V152H361V144Z" fill="white"/>
<path d="M407 144H366V152H407V144Z" fill="white"/>
<path d="M446 144H412V152H446V144Z" fill="white"/>
<path d="M389 157H365V165H389V157Z" fill="#CDCDCD"/>
<path d="M434 157H393V165H434V157Z" fill="#CDCDCD"/>
<path d="M446 157H438V165H446V157Z" fill="#CDCDCD"/>
<path d="M425 169H383V177H425V169Z" fill="#CDCDCD"/>
<path d="M446 169H429V177H446V169Z" fill="#CDCDCD"/>
<rect x="261" y="210" width="56" height="9" fill="white"/>
<rect x="322" y="210" width="28" height="9" fill="white"/>
<rect x="345" y="225" width="48" height="16" rx="1" fill="#29AAE1"/>
</g>
<defs>
<linearGradient id="paint0_linear" x1="276.308" y1="49.4299" x2="276.418" y2="118.52" gradientUnits="userSpaceOnUse">
<stop stop-color="#151145"/>
<stop offset="1" stop-color="#342F7A"/>
</linearGradient>
<linearGradient id="paint1_linear" x1="85.816" y1="8" x2="85.8881" y2="60.763" gradientUnits="userSpaceOnUse">
<stop stop-color="#151145"/>
<stop offset="1" stop-color="#342F7A"/>
</linearGradient>
<linearGradient id="paint2_linear" x1="171.576" y1="91.5507" x2="172.077" y2="246.898" gradientUnits="userSpaceOnUse">
<stop stop-color="#151145"/>
<stop offset="1" stop-color="#342F7A"/>
</linearGradient>
<linearGradient id="paint3_linear" x1="326" y1="202" x2="326.047" y2="247.116" gradientUnits="userSpaceOnUse">
<stop stop-color="#151145"/>
<stop offset="1" stop-color="#342F7A"/>
</linearGradient>
<clipPath id="clip0">
<rect width="505" height="249" fill="white"/>
</clipPath>
</defs>
</svg>
