<svg width="512" height="490" viewBox="0 0 512 490" fill="none" xmlns="http://www.w3.org/2000/svg">
<path d="M126.887 452.942C159.113 451.827 219.324 425.569 228.463 463.221C237.602 500.873 127.404 483.205 98.026 480.54C63.0895 477.566 44.5348 481.79 43.0312 467.763C41.5277 453.735 94.6608 454.057 126.887 452.942Z" fill="#2088B5" fill-opacity="0.25"/>
<path d="M488 12H13V416H488V12Z" fill="#EBEBEB"/>
<path d="M170.31 457.809C170.31 457.809 204.163 457.846 200.034 471.63C195.904 485.414 155.709 463.5 155.709 463.5C160.779 448.805 164.477 453.572 170.31 457.809Z" fill="black"/>
<path d="M94.0067 186.638H66.9653V194.882H94.0067V186.638Z" fill="#CDCDCD"/>
<path d="M111.113 457.459C111.113 457.459 144.961 458.037 140.612 471.753C136.263 485.47 94.2108 460.584 94.2108 460.584C104 445.5 105.348 453.129 111.113 457.459Z" fill="black"/>
<path d="M296 161V197H182" stroke="#808080" stroke-width="0.264583"/>
<path d="M209.629 302.876C212.596 400.655 189.908 422.118 170.5 458C163.084 455.016 155.818 463.767 155.818 463.767C163.873 417.321 170.307 403.462 169.429 355.455C156.998 415.501 131.189 428.974 111 458C104.5 452 97 458 94.5 460.5C121.765 407.232 133.007 350.872 135.426 295.382" fill="url(#paint0_linear)"/>
<path d="M362.736 83.43H215.88V152.342H362.736V83.43Z" fill="url(#paint1_linear)"/>
<path d="M458.464 273.949H263V397.682H458.464V273.949Z" fill="url(#paint2_linear)"/>
<path d="M341.306 288.568H284.413V296.812H341.306V288.568Z" fill="#ECECEC"/>
<path d="M436 313H284V321H436V313Z" fill="#ECECEC"/>
<path d="M327.788 138.163C339.905 138.163 349.727 128.346 349.727 116.235C349.727 104.124 339.905 94.3068 327.788 94.3068C315.672 94.3068 305.85 104.124 305.85 116.235C305.85 128.346 315.672 138.163 327.788 138.163Z" fill="#ECECEC"/>
<path d="M349.727 116.235C349.727 121.208 348.036 126.034 344.93 129.92C341.825 133.806 337.49 136.521 332.638 137.621C327.785 138.72 322.703 138.138 318.224 135.97C313.746 133.802 310.139 130.177 307.993 125.689C305.848 121.202 305.293 116.119 306.418 111.274C307.544 106.43 310.284 102.112 314.188 99.0287C318.092 95.9456 322.929 94.2806 327.905 94.3071C332.881 94.3335 337.7 96.0498 341.571 99.1743L327.788 116.235H349.727Z" fill="#29AAE1"/>
<path d="M434.236 363.064H383.768C382.888 363.064 382.174 363.777 382.174 364.657V382.663C382.174 383.542 382.888 384.255 383.768 384.255H434.236C435.116 384.255 435.829 383.542 435.829 382.663V364.657C435.829 363.777 435.116 363.064 434.236 363.064Z" fill="#29AAE1"/>
<path d="M436 328H284V336H436V328Z" fill="#ECECEC"/>
<path d="M436 342H284V350H436V342Z" fill="#ECECEC"/>
<path d="M255.96 107.19H228.919V115.434H255.96V107.19Z" fill="#ECECEC"/>
<path d="M255.96 119.758H228.919V128.002H255.96V119.758Z" fill="#ECECEC"/>
<path d="M292.136 94.6222H265.095V102.867H292.136V94.6222Z" fill="#ECECEC" fill-opacity="0.607595"/>
<path d="M292.136 132.325H265.095V140.57H292.136V132.325Z" fill="#ECECEC" fill-opacity="0.607595"/>
<path d="M94.0067 199.206H66.9653V207.45H94.0067V199.206Z" fill="#CDCDCD"/>
<path d="M94.0067 174.07H66.9653V182.315H94.0067V174.07Z" fill="white"/>
<path d="M92.4582 279.968C92.4582 279.968 86.3475 294.401 84.0484 295.683C81.7492 296.965 83.3171 293.125 83.3171 293.125C83.3171 293.125 75.7686 298.619 73.0791 293.856C70.3895 289.093 87.9791 276.405 87.9791 276.405L92.4582 279.968Z" fill="#FE9DAF"/>
<path d="M256.517 120.605L265.249 125.536C265.682 121.389 269.664 121.943 273.818 113.659C273.422 109.747 272.528 107.997 270.41 106.738C272.321 104.235 277.412 98.6144 273.357 99.2449C271.08 99.5407 265.713 108.107 265.713 108.107C265.713 108.107 266.57 101.992 264.572 102C262.574 102.007 258.859 113.714 258.884 117.471C257.809 119.56 257.105 119.659 256.517 120.605Z" fill="#FE9DAF"/>
<path d="M94.0067 211.773H66.9653V220.018H94.0067V211.773Z" fill="white"/>
<path d="M168.469 186.638H99.0254V194.882H168.469V186.638Z" fill="#CDCDCD"/>
<path d="M168.469 199.206H99.0254V207.45H168.469V199.206Z" fill="#CDCDCD"/>
<path d="M168.469 174.07H99.0254V182.315H168.469V174.07Z" fill="white"/>
<path d="M168.469 211.773H99.0254V220.018H168.469V211.773Z" fill="white"/>
<path d="M192.824 163.326C192.824 163.326 196.126 161.26 196.203 156.177C196.279 151.093 184.534 147.004 175.727 147.771C166.919 148.537 158.332 155.762 159.09 169.699C159.848 183.636 167.865 191.079 167.865 191.079L169.528 186.798L179.931 189.252C184.295 189.695 194.188 174.332 192.824 163.326Z" fill="#221A41"/>
<path d="M192.824 163.326C195.543 169.554 205.866 184.94 189.658 187.649L189.721 201.573C172.417 199.686 171.379 201.436 164.232 201.756L169.528 186.798C189.658 187.649 186.138 174.88 182.482 170.562C178.825 166.243 185.831 163.082 188.687 166.427C191.543 169.771 192.012 165.776 192.824 163.326V163.326Z" fill="#FF9BAD"/>
<path d="M164.632 33H33V85.6277H164.632V33Z" fill="url(#paint3_linear)"/>
<path d="M62.9655 59.5547C65.5361 59.5547 67.62 57.4719 67.62 54.9025C67.62 52.3331 65.5361 50.2502 62.9655 50.2502C60.3949 50.2502 58.311 52.3331 58.311 54.9025C58.311 57.4719 60.3949 59.5547 62.9655 59.5547Z" fill="white"/>
<path d="M62.9655 61.7261C60.3345 61.7282 57.7642 62.5168 55.5851 63.9905C53.4061 65.4643 51.7179 67.5558 50.7375 69.9962H75.197C74.2164 67.5552 72.5277 65.4633 70.3479 63.9895C68.1682 62.5157 65.5971 61.7275 62.9655 61.7261Z" fill="white"/>
<path d="M119.464 48.254H92.4224V56.4985H119.464V48.254Z" fill="#ECECEC" fill-opacity="0.607595"/>
<path d="M151.64 64.3347H92.4224V72.5791H151.64V64.3347Z" fill="#ECECEC" fill-opacity="0.607595"/>
<path d="M309.866 247.568H282.825V255.812H309.866V247.568Z" fill="#CDCDCD"/>
<path d="M330.342 259.77H282.825V268.014H330.342V259.77Z" fill="#CDCDCD"/>
<path d="M309.866 235H282.825V243.244H309.866V235Z" fill="white"/>
<path d="M363.397 235H317.342V243.244H363.397V235Z" fill="white"/>
<path d="M405.153 235H366.777V243.244H405.153V235Z" fill="white"/>
<path d="M340.215 247.568H313.173V255.812H340.215V247.568Z" fill="#CDCDCD"/>
<path d="M391.039 247.568H344.253V255.812H391.039V247.568Z" fill="#CDCDCD"/>
<path d="M405.153 247.568H396.394V255.812H405.153V247.568Z" fill="#CDCDCD"/>
<path d="M382.63 259.77H335.112V268.014H382.63V259.77Z" fill="#CDCDCD"/>
<path d="M405.153 259.77H386.522V268.014H405.153V259.77Z" fill="#CDCDCD"/>
<path d="M81 95V124H199" stroke="#808080" stroke-width="0.264583"/>
<path d="M201.873 202.348C229.595 178.65 242.593 145.867 257.72 116.551C259.719 117.5 264.313 119.264 266.64 123.141C261.683 165.604 243.037 212.057 218.162 228.708C216.32 260.948 217.417 290.663 214.283 313.213C179.013 319.491 149.101 314.631 129.738 308.303C129.006 292.953 135.129 255.067 144.216 235.685C120.905 250.755 113.473 266.261 92.2479 280.91C88.8808 279.013 88.282 278.038 86.8184 276.775C94.8711 259.151 118.334 215.999 148.353 202.348C165.28 194.651 183.514 198.609 201.873 202.348Z" fill="url(#paint4_linear)"/>
<path d="M289.687 67.0568C296.768 67.0568 302.508 61.3195 302.508 54.2422C302.508 47.1649 296.768 41.4276 289.687 41.4276C282.607 41.4276 276.866 47.1649 276.866 54.2422C276.866 61.3195 282.607 67.0568 289.687 67.0568Z" fill="#29AAE1"/>
<path d="M319.736 67.0568C326.816 67.0568 332.557 61.3195 332.557 54.2422C332.557 47.1649 326.816 41.4276 319.736 41.4276C312.655 41.4276 306.915 47.1649 306.915 54.2422C306.915 61.3195 312.655 67.0568 319.736 67.0568Z" fill="#FF9BAD"/>
<path d="M349.784 67.0568C356.865 67.0568 362.605 61.3195 362.605 54.2422C362.605 47.1649 356.865 41.4276 349.784 41.4276C342.704 41.4276 336.964 47.1649 336.964 54.2422C336.964 61.3195 342.704 67.0568 349.784 67.0568Z" fill="#29AAE1"/>
<path d="M159.686 0V24.8094H238.285L245.45 12.4037L238.285 0H159.686Z" fill="url(#paint5_linear)"/>
<path d="M252.619 0.000335693L259.783 12.4041L252.619 24.8098H325.075L332.239 12.4041L325.075 0.000335693H252.619Z" fill="url(#paint6_linear)"/>
<path d="M343 0L350.165 12.4037L343 24.8094H415.456L422.621 12.4037L415.456 0H343Z" fill="url(#paint7_linear)"/>
<path d="M56.104 345.324C63.1847 345.324 68.9247 339.587 68.9247 332.51C68.9247 325.432 63.1847 319.695 56.104 319.695C49.0232 319.695 43.2832 325.432 43.2832 332.51C43.2832 339.587 49.0232 345.324 56.104 345.324Z" fill="#151145"/>
<path d="M56.104 382.413C63.1847 382.413 68.9247 376.676 68.9247 369.598C68.9247 362.521 63.1847 356.784 56.104 356.784C49.0232 356.784 43.2832 362.521 43.2832 369.598C43.2832 376.676 49.0232 382.413 56.104 382.413Z" fill="#29AAE1"/>
<defs>
<linearGradient id="paint0_linear" x1="152.238" y1="295.382" x2="152.238" y2="465.351" gradientUnits="userSpaceOnUse">
<stop stop-color="#151145"/>
<stop offset="1" stop-color="#352F7B"/>
</linearGradient>
<linearGradient id="paint1_linear" x1="289.308" y1="83.43" x2="289.418" y2="152.52" gradientUnits="userSpaceOnUse">
<stop stop-color="#151145"/>
<stop offset="1" stop-color="#342F7A"/>
</linearGradient>
<linearGradient id="paint2_linear" x1="360.732" y1="273.949" x2="361" y2="398" gradientUnits="userSpaceOnUse">
<stop stop-color="#151145"/>
<stop offset="1" stop-color="#342F7A"/>
</linearGradient>
<linearGradient id="paint3_linear" x1="98.816" y1="33" x2="98.8881" y2="85.763" gradientUnits="userSpaceOnUse">
<stop stop-color="#151145"/>
<stop offset="1" stop-color="#342F7A"/>
</linearGradient>
<linearGradient id="paint4_linear" x1="209" y1="216" x2="176.729" y2="316.137" gradientUnits="userSpaceOnUse">
<stop stop-color="#29AAE1"/>
<stop offset="1" stop-color="#267DA2"/>
</linearGradient>
<linearGradient id="paint5_linear" x1="202.568" y1="0" x2="202.568" y2="24.8094" gradientUnits="userSpaceOnUse">
<stop stop-color="#FF9BAD"/>
<stop offset="1" stop-color="#FFBAC6"/>
</linearGradient>
<linearGradient id="paint6_linear" x1="305.5" y1="-6.96845e-07" x2="305.499" y2="25" gradientUnits="userSpaceOnUse">
<stop stop-color="#29AAE1"/>
<stop offset="1" stop-color="#5EC2ED"/>
</linearGradient>
<linearGradient id="paint7_linear" x1="382.81" y1="0" x2="382.81" y2="24.8094" gradientUnits="userSpaceOnUse">
<stop stop-color="#FF9BAD"/>
<stop offset="1" stop-color="#FFBAC6"/>
</linearGradient>
</defs>
</svg>
