<svg width="32" height="32" viewBox="0 0 32 32" fill="none" xmlns="http://www.w3.org/2000/svg">
<path d="M22.3069 27.5511H20.1534L19.145 25.2987H29.1766C30.2852 25.2987 31.187 24.3969 31.187 23.2883V2.38806C31.187 1.27941 30.2852 0.377615 29.1766 0.377615H2.82345C1.7148 0.377615 0.813 1.27941 0.813 2.38806V23.2883C0.813 24.3969 1.7148 25.2987 2.82345 25.2987H12.855L11.8466 27.5511H9.69309H9.59309V27.6511V31.5224V31.6224H9.69309H22.3069H22.4069V31.5224V27.6511V27.5511H22.3069ZM21.2517 28.7063V30.4672H10.7483V28.7063H10.7596H10.7782H10.7969H10.8156H10.8343H10.8531H10.8719H10.8907H10.9095H10.9284H10.9473H10.9662H10.9851H11.0041H11.0231H11.0421H11.0612H11.0802H11.0993H11.1185H11.1376H11.1568H11.176H11.1952H11.2145H11.2338H11.2531H11.2724H11.2918H11.3112H11.3306H11.35H11.3695H11.3889H11.4084H11.428H11.4475H11.4671H11.4867H11.5063H11.526H11.5457H11.5654H11.5851H11.6048H11.6246H11.6444H11.6642H11.684H11.7039H11.7237H11.7437H11.7636H11.7835H11.8035H11.8235H11.8435H11.8635H11.8836H11.9037H11.9238H11.9439H11.964H11.9842H12.0044H12.0246H12.0448H12.065H12.0853H12.1056H12.1259H12.1462H12.1666H12.1869H12.2073H12.2277H12.2482H12.2686H12.2891H12.3096H12.3301H12.3506H12.3711H12.3917H12.4123H12.4329H12.4535H12.4741H12.4948H12.5154H12.5361H12.5568H12.5776H12.5983H12.6191H12.6398H12.6606H12.6814H12.7023H12.7231H12.744H12.7649H12.7858H12.8067H12.8276H12.8485H12.8695H12.8905H12.9115H12.9325H12.9535H12.9746H12.9956H13.0167H13.0378H13.0589H13.08H13.1011H13.1223H13.1435H13.1646H13.1858H13.207H13.2283H13.2495H13.2707H13.292H13.3133H13.3346H13.3559H13.3772H13.3985H13.4199H13.4412H13.4626H13.484H13.5054H13.5268H13.5482H13.5697H13.5911H13.6126H13.634H13.6555H13.677H13.6985H13.7201H13.7416H13.7631H13.7847H13.8062H13.8278H13.8494H13.871H13.8926H13.9142H13.9359H13.9575H13.9792H14.0008H14.0225H14.0442H14.0659H14.0876H14.1093H14.131H14.1528H14.1745H14.1963H14.218H14.2398H14.2616H14.2833H14.3051H14.3269H14.3488H14.3706H14.3924H14.4142H14.4361H14.4579H14.4798H14.5017H14.5236H14.5454H14.5673H14.5892H14.6111H14.633H14.655H14.6769H14.6988H14.7208H14.7427H14.7647H14.7866H14.8086H14.8306H14.8525H14.8745H14.8965H14.9185H14.9405H14.9625H14.9845H15.0065H15.0286H15.0506H15.0726H15.0947H15.1167H15.1387H15.1608H15.1828H15.2049H15.227H15.249H15.2711H15.2932H15.3152H15.3373H15.3594H15.3815H15.4036H15.4257H15.4478H15.4699H15.492H15.5141H15.5362H15.5583H15.5804H15.6025H15.6246H15.6467H15.6689H15.691H15.7131H15.7352H15.7573H15.7795H15.8016H15.8237H15.8458H15.868H15.8901H15.9122H15.9344H15.9565H15.9786H16.0008H16.0229H16.045H16.0672H16.0893H16.1114H16.1335H16.1557H16.1778H16.1999H16.222H16.2442H16.2663H16.2884H16.3105H16.3327H16.3548H16.3769H16.399H16.4211H16.4432H16.4653H16.4874H16.5095H16.5316H16.5537H16.5758H16.5979H16.62H16.6421H16.6642H16.6863H16.7083H16.7304H16.7525H16.7745H16.7966H16.8186H16.8407H16.8627H16.8848H16.9068H16.9289H16.9509H16.9729H16.9949H17.0169H17.0389H17.061H17.083H17.1049H17.1269H17.1489H17.1709H17.1929H17.2148H17.2368H17.2587H17.2807H17.3026H17.3245H17.3465H17.3684H17.3903H17.4122H17.4341H17.456H17.4779H17.4997H17.5216H17.5435H17.5653H17.5872H17.609H17.6308H17.6526H17.6744H17.6962H17.718H17.7398H17.7616H17.7834H17.8051H17.8269H17.8486H17.8703H17.892H17.9138H17.9355H17.9571H17.9788H18.0005H18.0222H18.0438H18.0654H18.0871H18.1087H18.1303H18.1519H18.1735H18.195H18.2166H18.2382H18.2597H18.2812H18.3027H18.3242H18.3457H18.3672H18.3887H18.4101H18.4316H18.453H18.4744H18.4958H18.5172H18.5386H18.56H18.5813H18.6027H18.624H18.6453H18.6666H18.6879H18.7092H18.7304H18.7517H18.7729H18.7941H18.8153H18.8365H18.8577H18.8788H18.9H18.9211H18.9422H18.9633H18.9844H19.0055H19.0265H19.0475H19.0686H19.0896H19.1106H19.1315H19.1525H19.1734H19.1943H19.2153H19.2361H19.257H19.2779H19.2987H19.3195H19.3403H19.3611H19.3819H19.4027H19.4234H19.4441H19.4648H19.4855H19.5062H19.5268H19.5474H19.568H19.5886H19.6092H19.6297H19.6503H19.6708H19.6913H19.7118H19.7322H19.7527H19.7731H19.7935H19.8139H19.8342H19.8546H19.8749H19.8952H19.9155H19.9357H19.9559H19.9762H19.9964H20.0165H20.0367H20.0568H20.0769H20.097H20.1171H20.1371H20.1572H20.1772H20.1971H20.2171H20.237H20.257H20.2769H20.2967H20.3166H20.3364H20.3562H20.376H20.3957H20.4155H20.4352H20.4549H20.4745H20.4942H20.5138H20.5334H20.5529H20.5725H20.592H20.6115H20.631H20.6504H20.6698H20.6892H20.7086H20.728H20.7473H20.7666H20.7858H20.8051H20.8243H20.8435H20.8627H20.8818H20.9009H20.92H20.9391H20.9581H20.9772H20.9961H21.0151H21.034H21.0529H21.0718H21.0907H21.1095H21.1283H21.1471H21.1658H21.1845H21.2032H21.2219H21.2405H21.2517ZM17.8792 25.2987L18.8876 27.5511H13.1123L14.1208 25.2987H17.8792ZM1.96822 2.38806C1.96822 1.91649 2.35187 1.53284 2.82345 1.53284H29.1766C29.6481 1.53284 30.0318 1.91649 30.0318 2.38806V23.2883C30.0318 23.7598 29.6481 24.1435 29.1766 24.1435H29.0966H29.0168H28.9372H28.8578H28.7785H28.6995H28.6207H28.542H28.4636H28.3853H28.3073H28.2294H28.1517H28.0742H27.9969H27.9197H27.8428H27.7661H27.6895H27.6131H27.5369H27.4609H27.3851H27.3094H27.234H27.1587H27.0836H27.0087H26.934H26.8594H26.785H26.7108H26.6368H26.563H26.4894H26.4159H26.3426H26.2695H26.1965H26.1237H26.0512H25.9787H25.9065H25.8344H25.7625H25.6908H25.6193H25.5479H25.4767H25.4056H25.3348H25.2641H25.1936H25.1232H25.053H24.983H24.9131H24.8435H24.7739H24.7046H24.6354H24.5664H24.4975H24.4289H24.3603H24.292H24.2238H24.1557H24.0878H24.0201H23.9526H23.8852H23.818H23.7509H23.684H23.6172H23.5506H23.4842H23.4179H23.3518H23.2858H23.22H23.1543H23.0888H23.0234H22.9582H22.8932H22.8283H22.7636H22.699H22.6345H22.5703H22.5061H22.4421H22.3783H22.3146H22.2511H22.1877H22.1244H22.0613H21.9984H21.9356H21.8729H21.8104H21.748H21.6858H21.6237H21.5617H21.4999H21.4383H21.3768H21.3154H21.2541H21.193H21.1321H21.0713H21.0106H20.9501H20.8896H20.8294H20.7692H20.7093H20.6494H20.5897H20.5301H20.4706H20.4113H20.3521H20.2931H20.2341H20.1753H20.1167H20.0581H19.9997H19.9415H19.8833H19.8253H19.7674H19.7097H19.652H19.5945H19.5372H19.4799H19.4228H19.3658H19.3089H19.2522H19.1955H19.139H19.0826H19.0264H18.9702H18.9142H18.8583H18.8025H18.7469H18.6913H18.6359H18.5806H18.5254H18.4703H18.4154H18.3605H18.3058H18.2512H18.1967H18.1423H18.0881H18.0339H17.9799H17.926H17.8721H17.8184H17.7648H17.7114H17.658H17.6047H17.5516H17.4985H17.4456H17.3927H17.34H17.2874H17.2349H17.1825H17.1302H17.078H17.0259H16.9739H16.922H16.8702H16.8185H16.7669H16.7154H16.6641H16.6128H16.5616H16.5105H16.4595H16.4086H16.3578H16.3071H16.2565H16.206H16.1556H16.1053H16.0551H16.005H15.955H15.905H15.8552H15.8054H15.7558H15.7062H15.6567H15.6073H15.558H15.5088H15.4597H15.4107H15.3617H15.3129H15.2641H15.2154H15.1668H15.1183H15.0699H15.0216H14.9733H14.9251H14.877H14.829H14.7811H14.7332H14.6855H14.6378H14.5902H14.5427H14.4952H14.4478H14.4006H14.3533H14.3062H14.2591H14.2122H14.1652H14.1184H14.0717H14.025H13.9784H13.9318H13.8854H13.839H13.7926H13.7464H13.7002H13.6541H13.6081H13.5621H13.5162H13.4704H13.4246H13.3789H13.3333H13.2877H13.2422H13.1968H13.1514H13.1061H13.0608H13.0157H12.9706H12.9255H12.8805H12.8356H12.7907H12.7459H12.7012H12.6565H12.6118H12.5673H12.5227H12.4783H12.4339H12.3896H12.3453H12.301H12.2569H12.2127H12.1687H12.1247H12.0807H12.0368H11.9929H11.9491H11.9054H11.8617H11.818H11.7744H11.7309H11.6874H11.6439H11.6005H11.5571H11.5138H11.4706H11.4273H11.3842H11.341H11.2979H11.2549H11.2119H11.1689H11.126H11.0831H11.0403H10.9975H10.9548H10.9121H10.8694H10.8268H10.7842H10.7416H10.6991H10.6566H10.6142H10.5718H10.5294H10.4871H10.4447H10.4025H10.3602H10.318H10.2759H10.2337H10.1916H10.1496H10.1075H10.0655H10.0235H9.98155H9.93963H9.89773H9.85586H9.81402H9.7722H9.73041H9.68865H9.64691H9.6052H9.56351H9.52184H9.4802H9.43858H9.39698H9.35541H9.31385H9.27232H9.23081H9.18931H9.14784H9.10639H9.06495H9.02353H8.98213H8.94075H8.89938H8.85804H8.8167H8.77538H8.73408H8.69278H8.65151H8.61024H8.56899H8.52775H8.48652H8.44531H8.4041H8.36291H8.32172H8.28054H8.23938H8.19822H8.15706H8.11592H8.07478H8.03365H7.99252H7.9514H7.91029H7.86918H7.82807H7.78696H7.74586H7.70477H7.66367H7.62257H7.58148H7.54038H7.49929H7.4582H7.4171H7.376H7.3349H7.2938H7.2527H7.21159H7.17048H7.12936H7.08824H7.04711H7.00598H6.96484H6.9237H6.88254H6.84138H6.80021H6.75904H6.71785H6.67665H6.63544H6.59423H6.553H6.51175H6.4705H6.42923H6.38796H6.34666H6.30536H6.26403H6.2227H6.18134H6.13998H6.09859H6.05719H6.01577H5.97433H5.93287H5.8914H5.8499H5.80839H5.76685H5.72529H5.68371H5.64211H5.60049H5.55885H5.51718H5.47548H5.43376H5.39202H5.35025H5.30846H5.26664H5.22479H5.18292H5.14102H5.09909H5.05713H5.01514H4.97312H4.93107H4.88899H4.84688H4.80474H4.76256H4.72036H4.67812H4.63584H4.59353H4.55119H4.50881H4.4664H4.42395H4.38146H4.33894H4.29638H4.25378H4.21114H4.16846H4.12575H4.08299H4.04019H3.99735H3.95448H3.91155H3.86859H3.82558H3.78253H3.73944H3.6963H3.65312H3.60989H3.56661H3.52329H3.47992H3.43651H3.39304H3.34953H3.30597H3.26236H3.2187H3.17499H3.13123H3.08742H3.04356H2.99964H2.95567H2.91165H2.86758H2.82345C2.35187 24.1435 1.96822 23.7598 1.96822 23.2883V2.38806Z" fill="#29AAE1" stroke="#29AAE1" stroke-width="0.2"/>
<path d="M29.2765 2.09982V1.99982H29.1765H2.82345H2.72345V2.09982V23.1978V23.2978H2.82345H29.1765H29.2765V23.1978V2.09982ZM28.1213 22.1425H3.87867V3.15505H28.1213V22.1425Z" fill="#29AAE1" stroke="#29AAE1" stroke-width="0.2"/>
<path d="M26.537 4.08301V3.98301H26.437H5.56294H5.46294V4.08301V9.02213V9.12213H5.56294H26.437H26.537V9.02213V4.08301ZM25.3818 7.96691H6.61817V5.13823H25.3818V7.96691Z" fill="#29AAE1" stroke="#29AAE1" stroke-width="0.2"/>
<path d="M9.95166 10.9314V10.8314H9.85166H5.56294H5.46294V10.9314V15.2064V15.3064H5.56294H9.85166H9.95166V15.2064V10.9314ZM8.79644 14.1512H6.61817V11.9866H8.79644V14.1512Z" fill="#29AAE1" stroke="#29AAE1" stroke-width="0.2"/>
<path d="M22.0483 15.2064V15.3064H22.1483H26.437H26.537V15.2064V10.9314V10.8314H26.437H22.1483H22.0483V10.9314V15.2064ZM23.2035 11.9866H25.3818V14.1512H23.2035V11.9866Z" fill="#29AAE1" stroke="#29AAE1" stroke-width="0.2"/>
<path d="M13.8556 10.8314H13.7556V10.9314V15.2064V15.3064H13.8556H18.1443H18.2443V15.2064V10.9314V10.8314H18.1443H13.8556ZM17.0891 14.1512H14.9108V11.9866H17.0891V14.1512Z" fill="#29AAE1" stroke="#29AAE1" stroke-width="0.2"/>
<path d="M26.0594 16.9492V16.8492H25.9594H6.04054H5.94054V16.9492V17.9044V18.0044H6.04054H25.9594H26.0594V17.9044V16.9492Z" fill="#29AAE1" stroke="#29AAE1" stroke-width="0.2"/>
<path d="M7.33457 19.6472V19.5472H7.23457H6.04054H5.94054V19.6472V20.6024V20.7024H6.04054H7.23457H7.33457V20.6024V19.6472Z" fill="#29AAE1" stroke="#29AAE1" stroke-width="0.2"/>
<path d="M22.1683 19.6472V19.5472H22.0683H19.8209H19.7209V19.6472V20.6024V20.7024H19.8209H22.0683H22.1683V20.6024V19.6472Z" fill="#29AAE1" stroke="#29AAE1" stroke-width="0.2"/>
<path d="M12.2791 19.6472V19.5472H12.1791H9.93165H9.83165V19.6472V20.6024V20.7024H9.93165H12.1791H12.2791V20.6024V19.6472Z" fill="#29AAE1" stroke="#29AAE1" stroke-width="0.2"/>
<path d="M17.2238 19.6472V19.5472H17.1238H14.8761H14.7761V19.6472V20.6024V20.7024H14.8761H17.1238H17.2238V20.6024V19.6472Z" fill="#29AAE1" stroke="#29AAE1" stroke-width="0.2"/>
<path d="M26.0594 19.6472V19.5472H25.9594H24.7654H24.6654V19.6472V20.6024V20.7024H24.7654H25.9594H26.0594V20.6024V19.6472Z" fill="#29AAE1" stroke="#29AAE1" stroke-width="0.2"/>
</svg>
