<svg width="32" height="32" viewBox="0 0 32 32" fill="none" xmlns="http://www.w3.org/2000/svg">
<g clip-path="url(#clip0)">
<path d="M12.687 4.18693H7.98675C7.78932 4.73635 7.26662 5.17155 6.59692 5.17155V5.02155C5.85846 5.02155 5.21846 4.43078 5.21846 3.74155C5.21846 2.95385 5.85846 2.36309 6.59692 2.36309C7.18769 2.36309 7.72923 2.75693 7.87692 3.3477L12.687 4.18693ZM12.687 4.18693C12.2651 4.4888 11.8953 4.83977 11.5562 5.21659L11.5562 5.21655L11.5534 5.21978C10.6922 6.233 10.2377 7.54794 10.2377 8.86155V8.86241V8.86327V8.86414V8.865V8.86586V8.86672V8.86758V8.86843V8.86929V8.87014V8.871V8.87185V8.8727V8.87355V8.8744V8.87525V8.8761V8.87694V8.87779V8.87863V8.87948V8.88032V8.88116V8.882V8.88284V8.88368V8.88451V8.88535V8.88619V8.88702V8.88785V8.88868V8.88952V8.89035V8.89117V8.892V8.89283V8.89366V8.89448V8.89531V8.89613V8.89695V8.89777V8.89859V8.89941V8.90023V8.90105V8.90187V8.90268V8.9035V8.90431V8.90512V8.90594V8.90675V8.90756V8.90837V8.90918V8.90999V8.91079V8.9116V8.9124V8.91321V8.91401V8.91481V8.91562V8.91642V8.91722V8.91802V8.91882V8.91961V8.92041V8.92121V8.922V8.9228V8.92359V8.92438V8.92517V8.92597V8.92676V8.92755V8.92833V8.92912V8.92991V8.9307V8.93148V8.93227V8.93305V8.93384V8.93462V8.9354V8.93618V8.93696V8.93774V8.93852V8.9393V8.94008V8.94086V8.94163V8.94241V8.94318V8.94396V8.94473V8.9455V8.94628V8.94705V8.94782V8.94859V8.94936V8.95013V8.9509V8.95166V8.95243V8.9532V8.95396V8.95473V8.95549V8.95626V8.95702V8.95778V8.95855V8.95931V8.96007V8.96083V8.96159V8.96235V8.96311V8.96386V8.96462V8.96538V8.96614V8.96689V8.96765V8.9684V8.96916V8.96991V8.97066V8.97141V8.97217V8.97292V8.97367V8.97442V8.97517V8.97592V8.97667V8.97742V8.97816V8.97891V8.97966V8.98041V8.98115V8.9819V8.98264V8.98339V8.98413V8.98488V8.98562V8.98636V8.9871V8.98785V8.98859V8.98933V8.99007V8.99081V8.99155V8.99229V8.99303V8.99377V8.99451V8.99524V8.99598V8.99672V8.99746V8.99819V8.99893V8.99966V9.0004V9.00114V9.00187V9.0026V9.00334V9.00407V9.00481V9.00554V9.00627V9.007V9.00774V9.00847V9.0092V9.00993V9.01066V9.01139V9.01212V9.01285V9.01358V9.01431V9.01504V9.01577V9.0165V9.01723V9.01795V9.01868V9.01941V9.02014V9.02086V9.02159V9.02232V9.02305V9.02377V9.0245V9.02522V9.02595V9.02667V9.0274V9.02813V9.02885V9.02957V9.0303V9.03102V9.03175V9.03247V9.0332V9.03392V9.03464V9.03537V9.03609V9.03681V9.03754V9.03826V9.03898V9.0397V9.04043V9.04115V9.04187V9.04259V9.04332V9.04404V9.04476V9.04548V9.0462V9.04693V9.04765V9.04837V9.04909V9.04981V9.05053V9.05126V9.05198V9.0527V9.05342V9.05414V9.05486V9.05558V9.0563V9.05703V9.05775V9.05847V9.05919V9.05991V9.06063V9.06135V9.06207V9.0628V9.06352V9.06424V9.06496V9.06568V9.0664V9.06712V9.06784V9.06857V9.06929V9.07001V9.07073V9.07145V9.07218V9.0729V9.07362V9.07434V9.07506V9.07579V9.07651V9.07723V9.07795V9.07868V9.0794V9.08012V9.08085V9.08157V9.08229V9.08302V9.08374V9.08446V9.08519V9.08591V9.08664V9.08736V9.08809V9.08881V9.08954V9.09026V9.09099V9.09171V9.09244V9.09316V9.09389V9.09462V9.09534V9.09607V9.0968V9.09753V9.09825V9.09898V9.09971V9.10044V9.10117V9.1019V9.10262V9.10335V9.10408V9.10481V9.10554V9.10627V9.10701V9.10774V9.10847V9.1092V9.10993V9.11066V9.1114V9.11213V9.11286V9.1136V9.11433V9.11507V9.1158V9.11654V9.11727V9.11801V9.11874V9.11948V9.12022V9.12095V9.12169V9.12243V9.12317V9.12391V9.12465V9.12539V9.12613V9.12687V9.12761V9.12835V9.12909V9.12983V9.13057V9.13132V9.13206V9.1328V9.13355V9.13429V9.13504V9.13578V9.13653V9.13728V9.13802V9.13877V9.13952V9.14027V9.14102V9.14177V9.14252V9.14327V9.14402V9.14477V9.14552V9.14627V9.14703V9.14778V9.14853V9.14929V9.15004V9.1508V9.15156V9.15231V9.15307V9.15383V9.15459V9.15535V9.15611V9.15687V9.15763V9.15839V9.15915V9.15991V9.16068V9.16144V9.16221V9.16297V9.16374V9.1645V9.16527V9.16604V9.16681V9.16758V9.16835V9.16912V9.16989V9.17066V9.17143V9.1722V9.17298V9.17375V9.17453V9.1753V9.17608V9.17686V9.17763V9.17841V9.17919V9.17997V9.18075V9.18153V9.18232V9.1831V9.18388V9.18467V9.18545V9.18624V9.18703V9.18781V9.1886V9.18939V9.19018V9.19097V9.19176V9.19255V9.19335V9.19414V9.19493V9.19573V9.19653V9.19732V9.19812V9.19892V9.19972V9.20052V9.20132V9.20212V9.20292V9.20373V9.20453V9.20534V9.20614V9.20695V9.20776V9.20857V9.20938V9.21019V9.211V9.21181V9.21262V9.21344V9.21425V9.21507V9.21589V9.2167V9.21752V9.21834V9.21916V9.21998V9.22081V9.22163V9.22245V9.22328V9.22411V9.22493V9.22576V9.22659V9.22742V9.22825V9.22908V9.22992V9.23075V9.23159V9.23242V9.23326V9.2341V9.23494V9.23578V9.23662V9.23746V9.2383V9.23915V9.23999V9.24084V9.24169V9.24253V9.24338V9.24423V9.24509V9.24594V9.24679V9.24765V9.2485V9.24936V9.25022V9.25108V9.25194V9.2528V9.25366V9.25453V9.25539V9.41572L10.3977 9.40506L11.1361 9.35583L11.2762 9.34649V9.20616V9.20558V9.205V9.20442V9.20384V9.20326V9.20268V9.20209V9.20151V9.20092V9.20034V9.19975V9.19916V9.19857V9.19798V9.19738V9.19679V9.19619V9.1956V9.195V9.1944V9.1938V9.1932V9.1926V9.192V9.1914V9.19079V9.19019V9.18958V9.18897V9.18837V9.18776V9.18715V9.18653V9.18592V9.18531V9.1847V9.18408V9.18346V9.18285V9.18223V9.18161V9.18099V9.18037V9.17975V9.17912V9.1785V9.17788V9.17725V9.17662V9.176V9.17537V9.17474V9.17411V9.17348V9.17285V9.17221V9.17158V9.17095V9.17031V9.16968V9.16904V9.1684V9.16776V9.16712V9.16648V9.16584V9.1652V9.16456V9.16391V9.16327V9.16262V9.16198V9.16133V9.16068V9.16003V9.15938V9.15873V9.15808V9.15743V9.15678V9.15612V9.15547V9.15481V9.15416V9.1535V9.15284V9.15219V9.15153V9.15087V9.15021V9.14955V9.14889V9.14822V9.14756V9.1469V9.14623V9.14557V9.1449V9.14424V9.14357V9.1429V9.14223V9.14156V9.14089V9.14022V9.13955V9.13888V9.13821V9.13753V9.13686V9.13618V9.13551V9.13483V9.13416V9.13348V9.1328V9.13212V9.13144V9.13076V9.13008V9.1294V9.12872V9.12804V9.12736V9.12667V9.12599V9.12531V9.12462V9.12394V9.12325V9.12256V9.12188V9.12119V9.1205V9.11981V9.11912V9.11843V9.11774V9.11705V9.11636V9.11567V9.11498V9.11428V9.11359V9.1129V9.1122V9.11151V9.11081V9.11012V9.10942V9.10872V9.10803V9.10733V9.10663V9.10593V9.10523V9.10454V9.10384V9.10314V9.10243V9.10173V9.10103V9.10033V9.09963V9.09893V9.09822V9.09752V9.09681V9.09611V9.09541V9.0947V9.09399V9.09329V9.09258V9.09188V9.09117V9.09046V9.08975V9.08905V9.08834V9.08763V9.08692V9.08621V9.0855V9.08479V9.08408V9.08337V9.08266V9.08195V9.08124V9.08053V9.07981V9.0791V9.07839V9.07768V9.07696V9.07625V9.07554V9.07482V9.07411V9.07339V9.07268V9.07196V9.07125V9.07053V9.06982V9.0691V9.06839V9.06767V9.06695V9.06624V9.06552V9.0648V9.06409V9.06337V9.06265V9.06193V9.06122V9.0605V9.05978V9.05906V9.05834V9.05762V9.05691V9.05619V9.05547V9.05475V9.05403V9.05331V9.05259V9.05187V9.05115V9.05043V9.04971V9.04899V9.04827V9.04755V9.04683V9.04611V9.04539V9.04467V9.04395V9.04323V9.04251V9.04178V9.04106V9.04034V9.03962V9.0389V9.03818V9.03746V9.03674V9.03602V9.0353V9.03457V9.03385V9.03313V9.03241V9.03169V9.03097V9.03025V9.02953V9.0288V9.02808V9.02736V9.02664V9.02592V9.0252V9.02448V9.02376V9.02304V9.02232V9.0216V9.02088V9.02016V9.01944V9.01872V9.01799V9.01727V9.01656V9.01584V9.01512V9.0144V9.01368V9.01296V9.01224V9.01152V9.0108V9.01008V9.00936V9.00864V9.00793V9.00721V9.00649V9.00577V9.00505V9.00434V9.00362V9.0029V9.00218V9.00147V9.00075V9.00003V8.99932V8.9986V8.99789V8.99717V8.99646V8.99574V8.99503V8.99431V8.9936V8.99288V8.99217V8.99146V8.99074V8.99003V8.98932V8.9886V8.98789V8.98718V8.98647V8.98576V8.98504V8.98433V8.98362V8.98291V8.9822V8.98149V8.98078V8.98008V8.97937V8.97866V8.97795V8.97724V8.97654V8.97583V8.97512V8.97442V8.97371V8.973V8.9723V8.9716V8.97089V8.97019V8.96948V8.96878V8.96808V8.96738V8.96667V8.96597V8.96527V8.96457V8.96387V8.96317V8.96247V8.96177V8.96107V8.96038V8.95968V8.95898V8.95828V8.95759V8.95689V8.9562V8.9555V8.95481V8.95411V8.95342V8.95273V8.95204V8.95134V8.95065V8.94996V8.94927V8.94858V8.94789V8.9472V8.94652V8.94583V8.94514V8.94445V8.94377V8.94308V8.9424V8.94171V8.94103V8.94035V8.93966V8.93898V8.9383V8.93762V8.93694V8.93626V8.93558V8.9349V8.93423V8.93355V8.93287V8.9322V8.93152V8.93085V8.93017V8.9295V8.92883V8.92816V8.92748V8.92681V8.92614V8.92547V8.92481V8.92414V8.92347V8.9228V8.92214V8.92147V8.92081V8.92014V8.91948V8.91882V8.91816V8.9175V8.91684V8.91618V8.91552V8.91486V8.9142V8.91355V8.91289V8.91224V8.91158V8.91093V8.91028V8.90962V8.90897V8.90832V8.90767V8.90703V8.90638V8.90573V8.90508V8.90444V8.90379V8.90315V8.90251V8.90187V8.90122V8.90058V8.89994V8.8993V8.89867V8.89803V8.89739V8.89676V8.89612V8.89549V8.89486V8.89423V8.8936V8.89297V8.89234V8.89171V8.89108V8.89045V8.88983V8.8892V8.88858V8.88796V8.88734V8.88672V8.8861V8.88548V8.88486V8.88424V8.88363V8.88301V8.8824V8.88178V8.88117V8.88056V8.87995V8.87934V8.87873V8.87812V8.87752V8.87691V8.87631V8.87571V8.8751V8.8745V8.8739V8.8733V8.8727V8.87211V8.87151V8.87092V8.87032V8.86973V8.86914V8.86855V8.86796V8.86737V8.86678V8.8662V8.86561V8.86503V8.86444V8.86386V8.86328V8.8627V8.86212V8.86155C11.2762 7.76372 11.6581 6.71443 12.325 5.90459L12.325 5.9046L12.3264 5.90294C12.8545 5.24276 13.5452 4.74483 14.3238 4.44681M12.687 4.18693L14.3238 4.44681M14.3238 4.44681V5.12001V5.27001H14.4738H17.4277H17.5777V5.12001V4.44681C18.356 4.74471 19.0465 5.24236 19.5745 5.90215C20.2446 6.76395 20.6254 7.81475 20.6254 8.86155V8.86212V8.8627V8.86328V8.86386V8.86444V8.86503V8.86561V8.8662V8.86678V8.86737V8.86796V8.86855V8.86914V8.86973V8.87032V8.87092V8.87151V8.87211V8.8727V8.8733V8.8739V8.8745V8.8751V8.87571V8.87631V8.87691V8.87752V8.87812V8.87873V8.87934V8.87995V8.88056V8.88117V8.88178V8.8824V8.88301V8.88363V8.88424V8.88486V8.88548V8.8861V8.88672V8.88734V8.88796V8.88858V8.8892V8.88983V8.89045V8.89108V8.89171V8.89234V8.89297V8.8936V8.89423V8.89486V8.89549V8.89612V8.89676V8.89739V8.89803V8.89867V8.8993V8.89994V8.90058V8.90122V8.90187V8.90251V8.90315V8.90379V8.90444V8.90508V8.90573V8.90638V8.90703V8.90767V8.90832V8.90897V8.90962V8.91028V8.91093V8.91158V8.91224V8.91289V8.91355V8.9142V8.91486V8.91552V8.91618V8.91684V8.9175V8.91816V8.91882V8.91948V8.92014V8.92081V8.92147V8.92214V8.9228V8.92347V8.92414V8.92481V8.92547V8.92614V8.92681V8.92748V8.92816V8.92883V8.9295V8.93017V8.93085V8.93152V8.9322V8.93287V8.93355V8.93423V8.9349V8.93558V8.93626V8.93694V8.93762V8.9383V8.93898V8.93966V8.94035V8.94103V8.94171V8.9424V8.94308V8.94377V8.94445V8.94514V8.94583V8.94652V8.9472V8.94789V8.94858V8.94927V8.94996V8.95065V8.95134V8.95204V8.95273V8.95342V8.95411V8.95481V8.9555V8.9562V8.95689V8.95759V8.95828V8.95898V8.95968V8.96038V8.96107V8.96177V8.96247V8.96317V8.96387V8.96457V8.96527V8.96597V8.96667V8.96738V8.96808V8.96878V8.96948V8.97019V8.97089V8.9716V8.9723V8.973V8.97371V8.97442V8.97512V8.97583V8.97654V8.97724V8.97795V8.97866V8.97937V8.98008V8.98078V8.98149V8.9822V8.98291V8.98362V8.98433V8.98504V8.98576V8.98647V8.98718V8.98789V8.9886V8.98932V8.99003V8.99074V8.99146V8.99217V8.99288V8.9936V8.99431V8.99503V8.99574V8.99646V8.99717V8.99789V8.9986V8.99932V9.00003V9.00075V9.00147V9.00218V9.0029V9.00362V9.00434V9.00505V9.00577V9.00649V9.00721V9.00793V9.00864V9.00936V9.01008V9.0108V9.01152V9.01224V9.01296V9.01368V9.0144V9.01512V9.01584V9.01656V9.01727V9.01799V9.01872V9.01944V9.02016V9.02088V9.0216V9.02232V9.02304V9.02376V9.02448V9.0252V9.02592V9.02664V9.02736V9.02808V9.0288V9.02953V9.03025V9.03097V9.03169V9.03241V9.03313V9.03385V9.03457V9.0353V9.03602V9.03674V9.03746V9.03818V9.0389V9.03962V9.04034V9.04106V9.04178V9.04251V9.04323V9.04395V9.04467V9.04539V9.04611V9.04683V9.04755V9.04827V9.04899V9.04971V9.05043V9.05115V9.05187V9.05259V9.05331V9.05403V9.05475V9.05547V9.05619V9.05691V9.05762V9.05834V9.05906V9.05978V9.0605V9.06122V9.06193V9.06265V9.06337V9.06409V9.0648V9.06552V9.06624V9.06695V9.06767V9.06839V9.0691V9.06982V9.07053V9.07125V9.07196V9.07268V9.07339V9.07411V9.07482V9.07554V9.07625V9.07696V9.07768V9.07839V9.0791V9.07981V9.08053V9.08124V9.08195V9.08266V9.08337V9.08408V9.08479V9.0855V9.08621V9.08692V9.08763V9.08834V9.08905V9.08975V9.09046V9.09117V9.09188V9.09258V9.09329V9.09399V9.0947V9.09541V9.09611V9.09681V9.09752V9.09822V9.09893V9.09963V9.10033V9.10103V9.10173V9.10243V9.10314V9.10384V9.10454V9.10523V9.10593V9.10663V9.10733V9.10803V9.10872V9.10942V9.11012V9.11081V9.11151V9.1122V9.1129V9.11359V9.11428V9.11498V9.11567V9.11636V9.11705V9.11774V9.11843V9.11912V9.11981V9.1205V9.12119V9.12188V9.12256V9.12325V9.12394V9.12462V9.12531V9.12599V9.12667V9.12736V9.12804V9.12872V9.1294V9.13008V9.13076V9.13144V9.13212V9.1328V9.13348V9.13416V9.13483V9.13551V9.13618V9.13686V9.13753V9.13821V9.13888V9.13955V9.14022V9.14089V9.14156V9.14223V9.1429V9.14357V9.14424V9.1449V9.14557V9.14623V9.1469V9.14756V9.14822V9.14889V9.14955V9.15021V9.15087V9.15153V9.15219V9.15284V9.1535V9.15416V9.15481V9.15547V9.15612V9.15678V9.15743V9.15808V9.15873V9.15938V9.16003V9.16068V9.16133V9.16198V9.16262V9.16327V9.16391V9.16456V9.1652V9.16584V9.16648V9.16712V9.16776V9.1684V9.16904V9.16968V9.17031V9.17095V9.17158V9.17221V9.17285V9.17348V9.17411V9.17474V9.17537V9.176V9.17662V9.17725V9.17788V9.1785V9.17912V9.17975V9.18037V9.18099V9.18161V9.18223V9.18285V9.18346V9.18408V9.1847V9.18531V9.18592V9.18653V9.18715V9.18776V9.18837V9.18897V9.18958V9.19019V9.19079V9.1914V9.192V9.1926V9.1932V9.1938V9.1944V9.195V9.1956V9.19619V9.19679V9.19738V9.19798V9.19857V9.19916V9.19975V9.20034V9.20092V9.20151V9.20209V9.20268V9.20326V9.20384V9.20442V9.205V9.20558V9.20616V9.34649L20.7654 9.35583L21.5039 9.40506L21.6638 9.41572V9.25539V9.25453V9.25366V9.2528V9.25194V9.25108V9.25022V9.24936V9.2485V9.24765V9.24679V9.24594V9.24509V9.24423V9.24338V9.24253V9.24169V9.24084V9.23999V9.23915V9.2383V9.23746V9.23662V9.23578V9.23494V9.2341V9.23326V9.23242V9.23159V9.23075V9.22992V9.22908V9.22825V9.22742V9.22659V9.22576V9.22493V9.22411V9.22328V9.22245V9.22163V9.22081V9.21998V9.21916V9.21834V9.21752V9.2167V9.21589V9.21507V9.21425V9.21344V9.21262V9.21181V9.211V9.21019V9.20938V9.20857V9.20776V9.20695V9.20614V9.20534V9.20453V9.20373V9.20292V9.20212V9.20132V9.20052V9.19972V9.19892V9.19812V9.19732V9.19653V9.19573V9.19493V9.19414V9.19335V9.19255V9.19176V9.19097V9.19018V9.18939V9.1886V9.18781V9.18703V9.18624V9.18545V9.18467V9.18388V9.1831V9.18232V9.18153V9.18075V9.17997V9.17919V9.17841V9.17763V9.17686V9.17608V9.1753V9.17453V9.17375V9.17298V9.1722V9.17143V9.17066V9.16989V9.16912V9.16835V9.16758V9.16681V9.16604V9.16527V9.1645V9.16374V9.16297V9.16221V9.16144V9.16068V9.15991V9.15915V9.15839V9.15763V9.15687V9.15611V9.15535V9.15459V9.15383V9.15307V9.15231V9.15156V9.1508V9.15004V9.14929V9.14853V9.14778V9.14703V9.14627V9.14552V9.14477V9.14402V9.14327V9.14252V9.14177V9.14102V9.14027V9.13952V9.13877V9.13802V9.13728V9.13653V9.13578V9.13504V9.13429V9.13355V9.1328V9.13206V9.13132V9.13057V9.12983V9.12909V9.12835V9.12761V9.12687V9.12613V9.12539V9.12465V9.12391V9.12317V9.12243V9.12169V9.12095V9.12022V9.11948V9.11874V9.11801V9.11727V9.11654V9.1158V9.11507V9.11433V9.1136V9.11286V9.11213V9.1114V9.11066V9.10993V9.1092V9.10847V9.10774V9.10701V9.10627V9.10554V9.10481V9.10408V9.10335V9.10262V9.1019V9.10117V9.10044V9.09971V9.09898V9.09825V9.09753V9.0968V9.09607V9.09534V9.09462V9.09389V9.09316V9.09244V9.09171V9.09099V9.09026V9.08954V9.08881V9.08809V9.08736V9.08664V9.08591V9.08519V9.08446V9.08374V9.08302V9.08229V9.08157V9.08085V9.08012V9.0794V9.07868V9.07795V9.07723V9.07651V9.07579V9.07506V9.07434V9.07362V9.0729V9.07218V9.07145V9.07073V9.07001V9.06929V9.06857V9.06784V9.06712V9.0664V9.06568V9.06496V9.06424V9.06352V9.0628V9.06207V9.06135V9.06063V9.05991V9.05919V9.05847V9.05775V9.05703V9.0563V9.05558V9.05486V9.05414V9.05342V9.0527V9.05198V9.05126V9.05053V9.04981V9.04909V9.04837V9.04765V9.04693V9.0462V9.04548V9.04476V9.04404V9.04332V9.04259V9.04187V9.04115V9.04043V9.0397V9.03898V9.03826V9.03754V9.03681V9.03609V9.03537V9.03464V9.03392V9.0332V9.03247V9.03175V9.03102V9.0303V9.02957V9.02885V9.02813V9.0274V9.02667V9.02595V9.02522V9.0245V9.02377V9.02305V9.02232V9.02159V9.02086V9.02014V9.01941V9.01868V9.01795V9.01723V9.0165V9.01577V9.01504V9.01431V9.01358V9.01285V9.01212V9.01139V9.01066V9.00993V9.0092V9.00847V9.00774V9.007V9.00627V9.00554V9.00481V9.00407V9.00334V9.0026V9.00187V9.00114V9.0004V8.99966V8.99893V8.99819V8.99746V8.99672V8.99598V8.99524V8.99451V8.99377V8.99303V8.99229V8.99155V8.99081V8.99007V8.98933V8.98859V8.98785V8.9871V8.98636V8.98562V8.98488V8.98413V8.98339V8.98264V8.9819V8.98115V8.98041V8.97966V8.97891V8.97816V8.97742V8.97667V8.97592V8.97517V8.97442V8.97367V8.97292V8.97217V8.97141V8.97066V8.96991V8.96916V8.9684V8.96765V8.96689V8.96614V8.96538V8.96462V8.96386V8.96311V8.96235V8.96159V8.96083V8.96007V8.95931V8.95855V8.95778V8.95702V8.95626V8.95549V8.95473V8.95396V8.9532V8.95243V8.95166V8.9509V8.95013V8.94936V8.94859V8.94782V8.94705V8.94628V8.9455V8.94473V8.94396V8.94318V8.94241V8.94163V8.94086V8.94008V8.9393V8.93852V8.93774V8.93696V8.93618V8.9354V8.93462V8.93384V8.93305V8.93227V8.93148V8.9307V8.92991V8.92912V8.92833V8.92755V8.92676V8.92597V8.92517V8.92438V8.92359V8.9228V8.922V8.92121V8.92041V8.91961V8.91882V8.91802V8.91722V8.91642V8.91562V8.91481V8.91401V8.91321V8.9124V8.9116V8.91079V8.90999V8.90918V8.90837V8.90756V8.90675V8.90594V8.90512V8.90431V8.9035V8.90268V8.90187V8.90105V8.90023V8.89941V8.89859V8.89777V8.89695V8.89613V8.89531V8.89448V8.89366V8.89283V8.892V8.89117V8.89035V8.88952V8.88868V8.88785V8.88702V8.88619V8.88535V8.88451V8.88368V8.88284V8.882V8.88116V8.88032V8.87948V8.87863V8.87779V8.87694V8.8761V8.87525V8.8744V8.87355V8.8727V8.87185V8.871V8.87014V8.86929V8.86843V8.86758V8.86672V8.86586V8.865V8.86414V8.86327V8.86241V8.86155L14.3238 4.44681Z" fill="#29AAE1" stroke="#29AAE1" stroke-width="0.3"/>
<path d="M15.9069 7.3864L15.5627 8.41913C15.5626 8.41932 15.5626 8.41952 15.5625 8.41971C14.9327 10.2603 13.5715 12.2097 11.6136 14.0697L11.6136 14.0697L11.6108 14.0724L11.4139 14.2693L11.3378 14.3454L11.3855 14.4419L13.4447 18.6069H12.6523H12.5023V18.7569V20.9723V21.1223H12.6523H19.4954H19.6454V20.9723V18.7569V18.6069H19.4954H18.703L20.7621 14.4419L20.8156 14.3336L20.7214 14.2582L20.4802 14.0653C18.5248 12.2067 17.1653 10.2589 16.536 8.41971C16.5359 8.41952 16.5358 8.41933 16.5358 8.41913L16.1915 7.3864L16.0492 6.9595L15.9069 7.3864ZM16 12.95C16.203 12.95 16.3423 13.1191 16.3423 13.2923C16.3423 13.4953 16.1732 13.6346 16 13.6346C15.797 13.6346 15.6577 13.4655 15.6577 13.2923C15.6577 13.1191 15.797 12.95 16 12.95ZM18.5577 19.6454V20.0838H13.4423V19.6454H13.9815H18.0185H18.5577ZM19.4605 14.555L17.4817 18.6069H14.5665L12.5402 14.5542C13.7782 13.3466 14.756 12.102 15.5054 10.885V12.0537C15.004 12.2541 14.6192 12.7705 14.6192 13.3415C14.6192 14.1136 15.2279 14.7223 16 14.7223C16.7721 14.7223 17.3808 14.1136 17.3808 13.3415C17.3808 12.7705 16.996 12.2541 16.4946 12.0537V10.9206C17.2206 12.1589 18.232 13.3598 19.4605 14.555Z" fill="#29AAE1" stroke="#29AAE1" stroke-width="0.3"/>
<path d="M22.4985 5.70846H22.3485V5.85846V6.59692V6.74692H22.4985H30.7692C31.031 6.74692 31.2592 6.97515 31.2592 7.23692V22.8408H0.79V7.23692C0.79 6.97515 1.01823 6.74692 1.28 6.74692H9.55077H9.70077V6.59692V5.85846V5.70846H9.55077H1.23077C0.412979 5.70846 -0.297692 6.36292 -0.297692 7.23692V24.6154C-0.297692 25.4332 0.356764 26.1438 1.23077 26.1438H11.2223V28.8962H9.55077H9.40077V29.0462V29.7846V29.9346H9.55077H22.4985H22.6485V29.7846V29.0462V28.8962H22.4985H20.8269V26.0946H30.8185C31.6362 26.0946 32.3469 25.4402 32.3469 24.5662V7.18769H32.3473L32.3466 7.17771C32.292 6.35944 31.5856 5.70846 30.7692 5.70846H22.4985ZM0.74077 24.6154V23.83H31.21V24.6154V24.626L31.2115 24.6366C31.246 24.8778 31.0362 25.1054 30.7692 25.1054H1.23077C0.968997 25.1054 0.74077 24.8772 0.74077 24.6154ZM19.7392 28.8962H12.2608V26.0946H19.7392V28.8962Z" fill="#29AAE1" stroke="#29AAE1" stroke-width="0.3"/>
<path d="M12.6599 12.4138L12.766 12.3077L12.6599 12.2016L12.4138 11.9555L12.3126 11.8544L12.2068 11.9506L11.6653 12.4429L11.5488 12.5487L11.6601 12.6599C11.7646 12.7644 11.8422 12.8444 11.8781 12.9163L11.9712 13.1025L12.1184 12.9553L12.6599 12.4138Z" fill="#29AAE1" stroke="#29AAE1" stroke-width="0.3"/>
<path d="M10.506 9.84677L10.3589 9.87618L10.3883 10.0233C10.3891 10.0271 10.3898 10.0308 10.3906 10.0346C10.4381 10.2725 10.4906 10.5352 10.5981 10.7502L10.6576 10.869L10.7828 10.8243L11.472 10.5782L11.6 10.5325L11.5671 10.4005L11.4194 9.80978L11.3847 9.67102L11.2444 9.69907L10.506 9.84677Z" fill="#29AAE1" stroke="#29AAE1" stroke-width="0.3"/>
<path d="M12.0417 11.697L12.1742 11.6155L12.0879 11.486C11.9957 11.3478 11.9017 11.1603 11.8019 10.9606L11.7386 10.8341L11.6086 10.8898L10.9194 11.1852L10.7732 11.2479L10.8443 11.3902C10.895 11.4916 10.9578 11.6047 11.0186 11.7141L11.0196 11.7159C11.0816 11.8275 11.1414 11.9352 11.1889 12.0302L11.2622 12.1767L11.4017 12.0908L12.0417 11.697Z" fill="#29AAE1" stroke="#29AAE1" stroke-width="0.3"/>
<path d="M21.1608 11.3788L21.2105 11.2545L21.0926 11.191L20.4527 10.8464L20.3165 10.7731L20.2474 10.9114C20.1476 11.111 20.0535 11.2985 19.9614 11.4368L19.8782 11.5616L20.003 11.6448L20.5937 12.0386L20.7185 12.1219L20.8017 11.997C20.816 11.9756 20.8319 11.9524 20.8489 11.9275C20.9427 11.7906 21.0712 11.6028 21.1608 11.3788Z" fill="#29AAE1" stroke="#29AAE1" stroke-width="0.3"/>
<path d="M21.6117 10.0233L21.6407 9.87818L21.4961 9.84718L20.8068 9.69949L20.665 9.66911L20.6299 9.80978L20.4822 10.4005L20.4492 10.5325L20.5772 10.5782L21.2665 10.8243L21.43 10.8827L21.464 10.7125C21.4883 10.5912 21.5126 10.4819 21.5372 10.371L21.5373 10.3704C21.5619 10.26 21.5868 10.1479 21.6117 10.0233Z" fill="#29AAE1" stroke="#29AAE1" stroke-width="0.3"/>
<path d="M20.3399 12.6599L20.4512 12.5487L20.3348 12.4429L19.7932 11.9506L19.6874 11.8544L19.5862 11.9555L19.3401 12.2016L19.234 12.3077L19.3401 12.4138L19.8816 12.9553L20.0288 13.1025L20.1219 12.9163C20.1578 12.8444 20.2354 12.7644 20.3399 12.6599Z" fill="#29AAE1" stroke="#29AAE1" stroke-width="0.3"/>
</g>
<defs>
<clipPath id="clip0">
<rect width="32" height="32" fill="white"/>
</clipPath>
</defs>
</svg>
