<svg width="32" height="32" viewBox="0 0 32 32" fill="none" xmlns="http://www.w3.org/2000/svg">
<path d="M5.33331 28.6666C5.33331 28.8435 5.40355 29.013 5.52858 29.138C5.6536 29.2631 5.82317 29.3333 5.99998 29.3333H26C26.1768 29.3333 26.3464 29.2631 26.4714 29.138C26.5964 29.013 26.6666 28.8435 26.6666 28.6666V6.66666C26.6666 6.48984 26.5964 6.32028 26.4714 6.19525C26.3464 6.07023 26.1768 5.99999 26 5.99999H22V5.33332C22 5.15651 21.9297 4.98694 21.8047 4.86192C21.6797 4.73689 21.5101 4.66666 21.3333 4.66666H18.58C18.4695 4.2082 18.2395 3.78722 17.9133 3.44666C17.4049 2.96168 16.7293 2.6911 16.0266 2.6911C15.324 2.6911 14.6484 2.96168 14.14 3.44666C13.8138 3.78722 13.5838 4.2082 13.4733 4.66666H10.6666C10.4898 4.66666 10.3203 4.73689 10.1952 4.86192C10.0702 4.98694 9.99998 5.15651 9.99998 5.33332V5.99999H5.99998C5.82317 5.99999 5.6536 6.07023 5.52858 6.19525C5.40355 6.32028 5.33331 6.48984 5.33331 6.66666V28.6666ZM11.3333 5.99999H14C14.1768 5.99999 14.3464 5.92975 14.4714 5.80473C14.5964 5.6797 14.6666 5.51013 14.6666 5.33332C14.6681 4.98027 14.8096 4.64222 15.06 4.39332C15.3098 4.14499 15.6477 4.0056 16 4.0056C16.3522 4.0056 16.6902 4.14499 16.94 4.39332C17.1904 4.64222 17.3318 4.98027 17.3333 5.33332C17.3333 5.51013 17.4035 5.6797 17.5286 5.80473C17.6536 5.92975 17.8232 5.99999 18 5.99999H20.6666V7.33332H11.3333V5.99999ZM6.66665 7.33332H9.99998V7.99999C9.99998 8.1768 10.0702 8.34637 10.1952 8.47139C10.3203 8.59642 10.4898 8.66665 10.6666 8.66665H21.3333C21.5101 8.66665 21.6797 8.59642 21.8047 8.47139C21.9297 8.34637 22 8.1768 22 7.99999V7.33332H25.3333V28H6.66665V7.33332Z" fill="#29AAE1"/>
<path d="M10.1934 19.14C10.2553 19.2025 10.3291 19.2521 10.4103 19.2859C10.4915 19.3198 10.5787 19.3372 10.6667 19.3372C10.7547 19.3372 10.8418 19.3198 10.9231 19.2859C11.0043 19.2521 11.078 19.2025 11.14 19.14L12 18.2733L12.86 19.14C12.922 19.2025 12.9957 19.2521 13.077 19.2859C13.1582 19.3198 13.2453 19.3372 13.3334 19.3372C13.4214 19.3372 13.5085 19.3198 13.5897 19.2859C13.671 19.2521 13.7447 19.2025 13.8067 19.14C13.8692 19.078 13.9188 19.0043 13.9526 18.923C13.9865 18.8418 14.0039 18.7547 14.0039 18.6667C14.0039 18.5786 13.9865 18.4915 13.9526 18.4103C13.9188 18.329 13.8692 18.2553 13.8067 18.1933L12.94 17.3333L13.8067 16.4733C13.9322 16.3478 14.0027 16.1775 14.0027 16C14.0027 15.8225 13.9322 15.6522 13.8067 15.5267C13.6812 15.4011 13.5109 15.3306 13.3334 15.3306C13.1558 15.3306 12.9856 15.4011 12.86 15.5267L12 16.3933L11.14 15.5267C11.0145 15.4011 10.8442 15.3306 10.6667 15.3306C10.4892 15.3306 10.3189 15.4011 10.1934 15.5267C10.0678 15.6522 9.99729 15.8225 9.99729 16C9.99729 16.1775 10.0678 16.3478 10.1934 16.4733L11.06 17.3333L10.1934 18.1933C10.1309 18.2553 10.0813 18.329 10.0474 18.4103C10.0136 18.4915 9.99615 18.5786 9.99615 18.6667C9.99615 18.7547 10.0136 18.8418 10.0474 18.923C10.0813 19.0043 10.1309 19.078 10.1934 19.14Z" fill="#29AAE1"/>
<path d="M10.1934 13.8067C10.2553 13.8691 10.3291 13.9187 10.4103 13.9526C10.4915 13.9864 10.5787 14.0039 10.6667 14.0039C10.7547 14.0039 10.8418 13.9864 10.9231 13.9526C11.0043 13.9187 11.078 13.8691 11.14 13.8067L12 12.94L12.86 13.8067C12.922 13.8691 12.9957 13.9187 13.077 13.9526C13.1582 13.9864 13.2453 14.0039 13.3334 14.0039C13.4214 14.0039 13.5085 13.9864 13.5897 13.9526C13.671 13.9187 13.7447 13.8691 13.8067 13.8067C13.8692 13.7447 13.9188 13.6709 13.9526 13.5897C13.9865 13.5085 14.0039 13.4213 14.0039 13.3333C14.0039 13.2453 13.9865 13.1582 13.9526 13.0769C13.9188 12.9957 13.8692 12.922 13.8067 12.86L12.94 12L13.8067 11.14C13.9322 11.0145 14.0027 10.8442 14.0027 10.6667C14.0027 10.4891 13.9322 10.3189 13.8067 10.1933C13.6812 10.0678 13.5109 9.99727 13.3334 9.99727C13.1558 9.99727 12.9856 10.0678 12.86 10.1933L12 11.06L11.14 10.1933C11.0779 10.1312 11.0041 10.0819 10.9229 10.0482C10.8416 10.0146 10.7546 9.99727 10.6667 9.99727C10.5788 9.99727 10.4917 10.0146 10.4105 10.0482C10.3293 10.0819 10.2555 10.1312 10.1934 10.1933C10.1312 10.2555 10.0819 10.3293 10.0482 10.4105C10.0146 10.4917 9.99729 10.5788 9.99729 10.6667C9.99729 10.8442 10.0678 11.0145 10.1934 11.14L11.06 12L10.1934 12.86C10.1309 12.922 10.0813 12.9957 10.0474 13.0769C10.0136 13.1582 9.99615 13.2453 9.99615 13.3333C9.99615 13.4213 10.0136 13.5085 10.0474 13.5897C10.0813 13.6709 10.1309 13.7447 10.1934 13.8067Z" fill="#29AAE1"/>
<path d="M21.8067 20.86C21.7447 20.7975 21.671 20.7479 21.5897 20.7141C21.5085 20.6802 21.4213 20.6628 21.3333 20.6628C21.2453 20.6628 21.1582 20.6802 21.077 20.7141C20.9957 20.7479 20.922 20.7975 20.86 20.86L20 21.7267L19.14 20.86C19.0145 20.7345 18.8442 20.6639 18.6667 20.6639C18.4892 20.6639 18.3189 20.7345 18.1934 20.86C18.0678 20.9855 17.9973 21.1558 17.9973 21.3333C17.9973 21.5109 18.0678 21.6811 18.1934 21.8067L19.06 22.6667L18.1934 23.5267C18.1309 23.5887 18.0813 23.6624 18.0474 23.7436C18.0136 23.8249 17.9962 23.912 17.9962 24C17.9962 24.088 18.0136 24.1752 18.0474 24.2564C18.0813 24.3376 18.1309 24.4114 18.1934 24.4733C18.2553 24.5358 18.3291 24.5854 18.4103 24.6193C18.4915 24.6531 18.5787 24.6705 18.6667 24.6705C18.7547 24.6705 18.8418 24.6531 18.9231 24.6193C19.0043 24.5854 19.078 24.5358 19.14 24.4733L20 23.6067L20.86 24.4733C20.922 24.5358 20.9957 24.5854 21.077 24.6193C21.1582 24.6531 21.2453 24.6705 21.3333 24.6705C21.4213 24.6705 21.5085 24.6531 21.5897 24.6193C21.671 24.5854 21.7447 24.5358 21.8067 24.4733C21.8692 24.4114 21.9188 24.3376 21.9526 24.2564C21.9864 24.1752 22.0039 24.088 22.0039 24C22.0039 23.912 21.9864 23.8249 21.9526 23.7436C21.9188 23.6624 21.8692 23.5887 21.8067 23.5267L20.94 22.6667L21.8067 21.8067C21.8692 21.7447 21.9188 21.671 21.9526 21.5897C21.9864 21.5085 22.0039 21.4214 22.0039 21.3333C22.0039 21.2453 21.9864 21.1582 21.9526 21.077C21.9188 20.9957 21.8692 20.922 21.8067 20.86Z" fill="#29AAE1"/>
<path d="M20.86 12.4733C20.9219 12.5358 20.9957 12.5854 21.0769 12.6193C21.1582 12.6531 21.2453 12.6705 21.3333 12.6705C21.4213 12.6705 21.5084 12.6531 21.5897 12.6193C21.6709 12.5854 21.7447 12.5358 21.8066 12.4733C21.8691 12.4114 21.9187 12.3376 21.9526 12.2564C21.9864 12.1751 22.0038 12.088 22.0038 12C22.0038 11.912 21.9864 11.8249 21.9526 11.7436C21.9187 11.6624 21.8691 11.5886 21.8066 11.5267L20.4733 10.1933C20.4099 10.1326 20.3351 10.0851 20.2533 10.0533C20.091 9.98666 19.9089 9.98666 19.7466 10.0533C19.6648 10.0851 19.59 10.1326 19.5266 10.1933L18.1933 11.5267C18.0678 11.6522 17.9972 11.8225 17.9972 12C17.9972 12.1775 18.0678 12.3478 18.1933 12.4733C18.3188 12.5989 18.4891 12.6694 18.6666 12.6694C18.8442 12.6694 19.0144 12.5989 19.14 12.4733L19.3333 12.2733V15.4533C18.8607 15.6126 18.4666 15.9461 18.2312 16.3858C17.9959 16.8255 17.937 17.3384 18.0666 17.82L13.1933 21.0733C12.8498 20.8127 12.4312 20.67 12 20.6667C11.5832 20.6653 11.1764 20.7942 10.8364 21.0353C10.4964 21.2764 10.2403 21.6178 10.1037 22.0116C9.96722 22.4054 9.95714 22.832 10.0749 23.2318C10.1927 23.6316 10.4324 23.9846 10.7606 24.2416C11.0889 24.4985 11.4891 24.6464 11.9055 24.6647C12.3219 24.683 12.7336 24.5708 13.0831 24.3437C13.4326 24.1166 13.7025 23.786 13.8549 23.3981C14.0073 23.0101 14.0347 22.5843 13.9333 22.18L18.8133 18.9267C19.043 19.1079 19.3097 19.2366 19.5946 19.3036C19.8794 19.3705 20.1755 19.3742 20.4619 19.3142C20.7483 19.2543 21.0181 19.1322 21.2522 18.9567C21.4863 18.7811 21.679 18.5563 21.8168 18.2982C21.9545 18.04 22.0339 17.7547 22.0494 17.4625C22.0649 17.1703 22.0161 16.8783 21.9064 16.607C21.7968 16.3357 21.6289 16.0918 21.4147 15.8925C21.2005 15.6931 20.9451 15.5432 20.6666 15.4533V12.2733L20.86 12.4733ZM12 23.3333C11.8681 23.3333 11.7392 23.2942 11.6296 23.221C11.52 23.1477 11.4345 23.0436 11.384 22.9218C11.3336 22.8 11.3204 22.6659 11.3461 22.5366C11.3718 22.4073 11.4353 22.2885 11.5286 22.1953C11.6218 22.102 11.7406 22.0385 11.8699 22.0128C11.9992 21.9871 12.1333 22.0003 12.2551 22.0508C12.3769 22.1012 12.481 22.1867 12.5543 22.2963C12.6275 22.4059 12.6666 22.5348 12.6666 22.6667C12.6666 22.8435 12.5964 23.0131 12.4714 23.1381C12.3463 23.2631 12.1768 23.3333 12 23.3333ZM20 18C19.8908 18.0002 19.7832 17.9735 19.6867 17.9224C19.5902 17.8712 19.5078 17.7971 19.4466 17.7067C19.3725 17.5963 19.333 17.4663 19.3333 17.3333C19.3333 17.2015 19.3724 17.0726 19.4457 16.963C19.5189 16.8533 19.623 16.7679 19.7448 16.7174C19.8667 16.667 20.0007 16.6538 20.13 16.6795C20.2594 16.7052 20.3781 16.7687 20.4714 16.8619C20.5646 16.9552 20.6281 17.074 20.6538 17.2033C20.6796 17.3326 20.6663 17.4666 20.6159 17.5885C20.5654 17.7103 20.48 17.8144 20.3703 17.8876C20.2607 17.9609 20.1318 18 20 18Z" fill="#29AAE1"/>
<path d="M13.3333 27.3333C13.7015 27.3333 14 27.0349 14 26.6667C14 26.2985 13.7015 26 13.3333 26C12.9651 26 12.6666 26.2985 12.6666 26.6667C12.6666 27.0349 12.9651 27.3333 13.3333 27.3333Z" fill="#29AAE1"/>
<path d="M16 27.3333C16.3682 27.3333 16.6666 27.0349 16.6666 26.6667C16.6666 26.2985 16.3682 26 16 26C15.6318 26 15.3333 26.2985 15.3333 26.6667C15.3333 27.0349 15.6318 27.3333 16 27.3333Z" fill="#29AAE1"/>
<path d="M18.6667 27.3333C19.0349 27.3333 19.3333 27.0349 19.3333 26.6667C19.3333 26.2985 19.0349 26 18.6667 26C18.2985 26 18 26.2985 18 26.6667C18 27.0349 18.2985 27.3333 18.6667 27.3333Z" fill="#29AAE1"/>
</svg>
