<svg width="32" height="32" viewBox="0 0 32 32" fill="none" xmlns="http://www.w3.org/2000/svg">
<path d="M3.09677 10.3226H5.16129V11.3549H3.09677V10.3226Z" fill="#29AAE1"/>
<path d="M30.4516 8.25806C31.3052 8.25806 32 7.56326 32 6.70968V1.54839C32 0.694808 31.3052 0 30.4516 0H23.2258C22.3722 0 21.6774 0.694808 21.6774 1.54839V6.70968C21.6774 7.56326 22.3722 8.25806 23.2258 8.25806H24.7742V9.29032H23.7419V10.3226H26.3226V15.4839H24.1925C23.7807 15.0819 23.2737 14.7742 22.7061 14.6048C22.7087 14.5527 22.7097 14.5023 22.7097 14.4516C22.7097 12.1749 20.8574 10.3226 18.5806 10.3226C17.1681 10.3226 15.8551 11.0575 15.1031 12.2329C14.5733 11.995 14.0005 11.871 13.4194 11.871C11.7064 11.871 10.1641 12.9506 9.56074 14.5343C9.1686 14.6184 8.80317 14.7692 8.47127 14.9677H4.64516V13.4194H6.70968C7.56326 13.4194 8.25806 12.7245 8.25806 11.871V1.54839C8.25806 0.694808 7.56326 0 6.70968 0H1.54839C0.694808 0 0 0.694808 0 1.54839V11.871C0 12.7245 0.694808 13.4194 1.54839 13.4194H3.6129V16H7.37349C7.15398 16.3133 6.98362 16.659 6.87172 17.0323H4.64516V22.7097H2.58065C1.72707 22.7097 1.03226 23.4045 1.03226 24.2581V28.9032H0V30.4516C0 31.3052 0.694808 32 1.54839 32H9.80645C10.66 32 11.3548 31.3052 11.3548 30.4516V28.9032H10.3226V24.2581C10.3226 23.4045 9.62777 22.7097 8.77419 22.7097H5.67742V18.0645H6.70968C6.70968 20.0562 8.3309 21.6774 10.3226 21.6774H21.6774C23.4937 21.6774 24.9972 20.3284 25.249 18.5806H27.3548V22.7097H23.7419V32H32V22.7097H28.3871V17.5484H25.247C25.1933 17.185 25.0819 16.8392 24.9259 16.5161H27.3548V10.3226H29.9355V9.29032H28.9032V8.25806H30.4516ZM7.22581 8.25806H1.03226V3.09677H7.22581V8.25806ZM1.54839 1.03226H6.70968C6.99446 1.03226 7.22581 1.26361 7.22581 1.54839V2.06452H1.03226V1.54839C1.03226 1.26361 1.26361 1.03226 1.54839 1.03226ZM1.03226 11.871V9.29032H7.22581V11.871C7.22581 12.1557 6.99446 12.3871 6.70968 12.3871H1.54839C1.26361 12.3871 1.03226 12.1557 1.03226 11.871ZM10.3226 30.4516C10.3226 30.7364 10.0912 30.9677 9.80645 30.9677H1.54839C1.26361 30.9677 1.03226 30.7364 1.03226 30.4516V29.9355H10.3226V30.4516ZM9.29032 24.2581V28.9032H2.06452V24.2581C2.06452 23.9733 2.29587 23.7419 2.58065 23.7419H8.77419C9.05897 23.7419 9.29032 23.9733 9.29032 24.2581ZM24.7742 30.9677V27.871H30.9677V30.9677H24.7742ZM30.9677 26.8387H24.7742V23.7419H30.9677V26.8387ZM21.6774 20.6452H10.3226C8.8997 20.6452 7.74194 19.4874 7.74194 18.0645C7.74194 16.7598 8.7185 15.6593 10.0129 15.5045L10.3516 15.4637L10.4471 15.1361C10.8289 13.8213 12.0517 12.9032 13.4194 12.9032C13.9892 12.9032 14.5486 13.0633 15.0391 13.3652L15.5318 13.6691L15.7775 13.1442C16.2855 12.0567 17.3858 11.3548 18.5806 11.3548C20.2886 11.3548 21.6774 12.7437 21.6774 14.4516C21.6774 14.594 21.6646 14.7457 21.6366 14.9289L21.5587 15.4395L22.0691 15.5169C23.317 15.7074 24.2581 16.8027 24.2581 18.0645C24.2581 19.4874 23.1003 20.6452 21.6774 20.6452ZM23.2258 1.03226H30.4516C30.7364 1.03226 30.9677 1.26361 30.9677 1.54839V5.16129H22.7097V1.54839C22.7097 1.26361 22.941 1.03226 23.2258 1.03226ZM22.7097 6.70968V6.19355H30.9677V6.70968C30.9677 6.99446 30.7364 7.22581 30.4516 7.22581H23.2258C22.941 7.22581 22.7097 6.99446 22.7097 6.70968ZM27.871 9.29032H25.8064V8.25806H27.871V9.29032Z" fill="#29AAE1"/>
<path d="M25.8065 24.7742H26.8387V25.8065H25.8065V24.7742Z" fill="#29AAE1"/>
<path d="M28.9032 28.9032H29.9355V29.9354H28.9032V28.9032Z" fill="#29AAE1"/>
<path d="M27.871 24.7742H29.9355V25.8065H27.871V24.7742Z" fill="#29AAE1"/>
<path d="M25.8065 28.9032H27.871V29.9354H25.8065V28.9032Z" fill="#29AAE1"/>
</svg>
