<svg width="32" height="32" viewBox="0 0 32 32" fill="none" xmlns="http://www.w3.org/2000/svg">
<mask id="path-1-outside-1" maskUnits="userSpaceOnUse" x="2.89374" y="2.925" width="29" height="26" fill="black">
<rect fill="white" x="2.89374" y="2.925" width="29" height="26"/>
<path d="M30.975 15.6L30.025 15.5C29.925 14.9 29.675 14.3 29.325 13.8L29.925 13.075C29.975 13 29.975 12.9 29.9 12.825L29.225 12.15C29.15 12.075 29.05 12.075 28.975 12.125L28.25 12.725C27.75 12.375 27.15 12.125 26.55 12.025L26.45 11.075C26.45 10.975 26.35 10.9 26.275 10.9H25.325C25.225 10.9 25.15 10.975 25.15 11.075L25.05 12.025C24.575 12.1 24.1 12.275 23.675 12.525V4.925C23.675 4.375 23.225 3.925 22.675 3.925H9.59999C9.04999 3.925 8.59999 4.375 8.59999 4.925V17.525H4.17499C4.07499 17.525 3.97499 17.6 3.97499 17.725V19.75C3.97499 19.85 4.04999 19.95 4.17499 19.95H10.05V20.525C10.05 20.6 10.1 20.675 10.175 20.7C10.2 20.7 10.225 20.725 10.25 20.725C10.3 20.725 10.35 20.7 10.375 20.675L12.15 18.9C12.175 18.875 12.2 18.825 12.2 18.775C12.2 18.725 12.175 18.675 12.15 18.65L10.375 16.875C10.325 16.825 10.25 16.8 10.175 16.825C10.1 16.85 10.05 16.925 10.05 17V17.575H8.97499V7.375H23.3V12.675L22.625 12.125C22.55 12.075 22.45 12.075 22.375 12.15L21.7 12.825C21.625 12.9 21.625 13 21.675 13.075L22.275 13.8C21.925 14.3 21.675 14.9 21.575 15.5L20.625 15.6C20.525 15.6 20.45 15.7 20.45 15.775V16.725C20.45 16.825 20.525 16.9 20.625 16.9L21.575 17C21.675 17.6 21.925 18.2 22.275 18.7L21.675 19.425C21.625 19.5 21.625 19.6 21.7 19.675L22.375 20.35C22.45 20.425 22.55 20.425 22.625 20.375L23.3 19.825V25.125H8.97499V24H11.925C12.025 24 12.125 23.925 12.125 23.8V21.775C12.125 21.675 12.05 21.575 11.925 21.575H6.04999V21C6.04999 20.925 5.99999 20.85 5.92499 20.825C5.84999 20.8 5.77499 20.8 5.72499 20.875L3.94999 22.65C3.87499 22.725 3.87499 22.85 3.94999 22.925L5.72499 24.7C5.74999 24.725 5.79999 24.75 5.84999 24.75C5.87499 24.75 5.89999 24.75 5.92499 24.725C5.99999 24.7 6.04999 24.625 6.04999 24.55V23.975H8.59999V27.55C8.59999 28.1 9.04999 28.55 9.59999 28.55H22.7C23.25 28.55 23.7 28.1 23.7 27.55V19.975C24.125 20.225 24.6 20.4 25.075 20.475L25.175 21.425C25.175 21.525 25.275 21.6 25.35 21.6H26.3C26.4 21.6 26.475 21.525 26.475 21.425L26.575 20.475C27.175 20.375 27.775 20.125 28.275 19.775L29 20.375C29.075 20.425 29.175 20.425 29.25 20.35L29.925 19.675C30 19.6 30 19.5 29.95 19.425L29.35 18.7C29.7 18.2 29.95 17.6 30.05 17L31 16.9C31.1 16.9 31.175 16.8 31.175 16.725V15.775C31.15 15.675 31.075 15.6 30.975 15.6ZM10.25 17.925C10.35 17.925 10.45 17.85 10.45 17.725V17.4L11.75 18.75L10.425 20.075V19.775C10.425 19.725 10.4 19.675 10.375 19.65C10.35 19.625 10.3 19.6 10.25 19.6H4.34999V17.95H10.25V17.925ZM5.84999 23.625C5.74999 23.625 5.64999 23.7 5.64999 23.825V24.15L4.32499 22.825L5.64999 21.5V21.8C5.64999 21.85 5.67499 21.9 5.69999 21.925C5.72499 21.95 5.77499 21.975 5.82499 21.975H11.7V23.625H5.84999ZM8.97499 7V4.925C8.97499 4.575 9.24999 4.325 9.59999 4.325H22.7C23.05 4.325 23.325 4.6 23.325 4.925V7H8.97499ZM22.675 28.175H9.59999C9.24999 28.175 8.97499 27.9 8.97499 27.55V25.5H23.3V27.575C23.3 27.9 23.025 28.175 22.675 28.175ZM30.775 16.55L29.85 16.65C29.775 16.65 29.7 16.725 29.675 16.8C29.575 17.45 29.325 18.075 28.925 18.6C28.875 18.675 28.875 18.775 28.925 18.825L29.5 19.55L29.075 19.975L28.35 19.4C28.275 19.35 28.175 19.35 28.125 19.4C27.6 19.8 26.975 20.05 26.325 20.15C26.25 20.15 26.175 20.225 26.175 20.325L26.075 21.25H25.5L25.4 20.325C25.4 20.25 25.325 20.175 25.25 20.15C24.6 20.05 23.975 19.8 23.45 19.4C23.375 19.35 23.275 19.35 23.225 19.4L22.5 19.975L22.075 19.55L22.65 18.825C22.7 18.75 22.7 18.65 22.65 18.6C22.25 18.075 22 17.45 21.9 16.8C21.9 16.725 21.825 16.65 21.725 16.65L20.8 16.55V15.95L21.725 15.85C21.8 15.85 21.875 15.775 21.9 15.7C22 15.05 22.25 14.425 22.65 13.9C22.7 13.825 22.7 13.725 22.65 13.675L22.075 12.95L22.5 12.525L23.225 13.1C23.3 13.15 23.4 13.15 23.45 13.1C23.975 12.7 24.6 12.45 25.25 12.35C25.325 12.35 25.4 12.275 25.4 12.175L25.5 11.25H26.1L26.2 12.175C26.2 12.25 26.275 12.325 26.35 12.35C27 12.45 27.625 12.7 28.15 13.1C28.225 13.15 28.325 13.15 28.375 13.1L29.1 12.525L29.525 12.95L28.95 13.675C28.9 13.75 28.9 13.85 28.95 13.9C29.35 14.425 29.6 15.05 29.7 15.7C29.7 15.775 29.775 15.85 29.875 15.85L30.8 15.95V16.55H30.775Z"/>
</mask>
<path d="M30.975 15.6L30.025 15.5C29.925 14.9 29.675 14.3 29.325 13.8L29.925 13.075C29.975 13 29.975 12.9 29.9 12.825L29.225 12.15C29.15 12.075 29.05 12.075 28.975 12.125L28.25 12.725C27.75 12.375 27.15 12.125 26.55 12.025L26.45 11.075C26.45 10.975 26.35 10.9 26.275 10.9H25.325C25.225 10.9 25.15 10.975 25.15 11.075L25.05 12.025C24.575 12.1 24.1 12.275 23.675 12.525V4.925C23.675 4.375 23.225 3.925 22.675 3.925H9.59999C9.04999 3.925 8.59999 4.375 8.59999 4.925V17.525H4.17499C4.07499 17.525 3.97499 17.6 3.97499 17.725V19.75C3.97499 19.85 4.04999 19.95 4.17499 19.95H10.05V20.525C10.05 20.6 10.1 20.675 10.175 20.7C10.2 20.7 10.225 20.725 10.25 20.725C10.3 20.725 10.35 20.7 10.375 20.675L12.15 18.9C12.175 18.875 12.2 18.825 12.2 18.775C12.2 18.725 12.175 18.675 12.15 18.65L10.375 16.875C10.325 16.825 10.25 16.8 10.175 16.825C10.1 16.85 10.05 16.925 10.05 17V17.575H8.97499V7.375H23.3V12.675L22.625 12.125C22.55 12.075 22.45 12.075 22.375 12.15L21.7 12.825C21.625 12.9 21.625 13 21.675 13.075L22.275 13.8C21.925 14.3 21.675 14.9 21.575 15.5L20.625 15.6C20.525 15.6 20.45 15.7 20.45 15.775V16.725C20.45 16.825 20.525 16.9 20.625 16.9L21.575 17C21.675 17.6 21.925 18.2 22.275 18.7L21.675 19.425C21.625 19.5 21.625 19.6 21.7 19.675L22.375 20.35C22.45 20.425 22.55 20.425 22.625 20.375L23.3 19.825V25.125H8.97499V24H11.925C12.025 24 12.125 23.925 12.125 23.8V21.775C12.125 21.675 12.05 21.575 11.925 21.575H6.04999V21C6.04999 20.925 5.99999 20.85 5.92499 20.825C5.84999 20.8 5.77499 20.8 5.72499 20.875L3.94999 22.65C3.87499 22.725 3.87499 22.85 3.94999 22.925L5.72499 24.7C5.74999 24.725 5.79999 24.75 5.84999 24.75C5.87499 24.75 5.89999 24.75 5.92499 24.725C5.99999 24.7 6.04999 24.625 6.04999 24.55V23.975H8.59999V27.55C8.59999 28.1 9.04999 28.55 9.59999 28.55H22.7C23.25 28.55 23.7 28.1 23.7 27.55V19.975C24.125 20.225 24.6 20.4 25.075 20.475L25.175 21.425C25.175 21.525 25.275 21.6 25.35 21.6H26.3C26.4 21.6 26.475 21.525 26.475 21.425L26.575 20.475C27.175 20.375 27.775 20.125 28.275 19.775L29 20.375C29.075 20.425 29.175 20.425 29.25 20.35L29.925 19.675C30 19.6 30 19.5 29.95 19.425L29.35 18.7C29.7 18.2 29.95 17.6 30.05 17L31 16.9C31.1 16.9 31.175 16.8 31.175 16.725V15.775C31.15 15.675 31.075 15.6 30.975 15.6ZM10.25 17.925C10.35 17.925 10.45 17.85 10.45 17.725V17.4L11.75 18.75L10.425 20.075V19.775C10.425 19.725 10.4 19.675 10.375 19.65C10.35 19.625 10.3 19.6 10.25 19.6H4.34999V17.95H10.25V17.925ZM5.84999 23.625C5.74999 23.625 5.64999 23.7 5.64999 23.825V24.15L4.32499 22.825L5.64999 21.5V21.8C5.64999 21.85 5.67499 21.9 5.69999 21.925C5.72499 21.95 5.77499 21.975 5.82499 21.975H11.7V23.625H5.84999ZM8.97499 7V4.925C8.97499 4.575 9.24999 4.325 9.59999 4.325H22.7C23.05 4.325 23.325 4.6 23.325 4.925V7H8.97499ZM22.675 28.175H9.59999C9.24999 28.175 8.97499 27.9 8.97499 27.55V25.5H23.3V27.575C23.3 27.9 23.025 28.175 22.675 28.175ZM30.775 16.55L29.85 16.65C29.775 16.65 29.7 16.725 29.675 16.8C29.575 17.45 29.325 18.075 28.925 18.6C28.875 18.675 28.875 18.775 28.925 18.825L29.5 19.55L29.075 19.975L28.35 19.4C28.275 19.35 28.175 19.35 28.125 19.4C27.6 19.8 26.975 20.05 26.325 20.15C26.25 20.15 26.175 20.225 26.175 20.325L26.075 21.25H25.5L25.4 20.325C25.4 20.25 25.325 20.175 25.25 20.15C24.6 20.05 23.975 19.8 23.45 19.4C23.375 19.35 23.275 19.35 23.225 19.4L22.5 19.975L22.075 19.55L22.65 18.825C22.7 18.75 22.7 18.65 22.65 18.6C22.25 18.075 22 17.45 21.9 16.8C21.9 16.725 21.825 16.65 21.725 16.65L20.8 16.55V15.95L21.725 15.85C21.8 15.85 21.875 15.775 21.9 15.7C22 15.05 22.25 14.425 22.65 13.9C22.7 13.825 22.7 13.725 22.65 13.675L22.075 12.95L22.5 12.525L23.225 13.1C23.3 13.15 23.4 13.15 23.45 13.1C23.975 12.7 24.6 12.45 25.25 12.35C25.325 12.35 25.4 12.275 25.4 12.175L25.5 11.25H26.1L26.2 12.175C26.2 12.25 26.275 12.325 26.35 12.35C27 12.45 27.625 12.7 28.15 13.1C28.225 13.15 28.325 13.15 28.375 13.1L29.1 12.525L29.525 12.95L28.95 13.675C28.9 13.75 28.9 13.85 28.95 13.9C29.35 14.425 29.6 15.05 29.7 15.7C29.7 15.775 29.775 15.85 29.875 15.85L30.8 15.95V16.55H30.775Z" fill="#29AAE1"/>
<path d="M30.975 15.6L30.025 15.5C29.925 14.9 29.675 14.3 29.325 13.8L29.925 13.075C29.975 13 29.975 12.9 29.9 12.825L29.225 12.15C29.15 12.075 29.05 12.075 28.975 12.125L28.25 12.725C27.75 12.375 27.15 12.125 26.55 12.025L26.45 11.075C26.45 10.975 26.35 10.9 26.275 10.9H25.325C25.225 10.9 25.15 10.975 25.15 11.075L25.05 12.025C24.575 12.1 24.1 12.275 23.675 12.525V4.925C23.675 4.375 23.225 3.925 22.675 3.925H9.59999C9.04999 3.925 8.59999 4.375 8.59999 4.925V17.525H4.17499C4.07499 17.525 3.97499 17.6 3.97499 17.725V19.75C3.97499 19.85 4.04999 19.95 4.17499 19.95H10.05V20.525C10.05 20.6 10.1 20.675 10.175 20.7C10.2 20.7 10.225 20.725 10.25 20.725C10.3 20.725 10.35 20.7 10.375 20.675L12.15 18.9C12.175 18.875 12.2 18.825 12.2 18.775C12.2 18.725 12.175 18.675 12.15 18.65L10.375 16.875C10.325 16.825 10.25 16.8 10.175 16.825C10.1 16.85 10.05 16.925 10.05 17V17.575H8.97499V7.375H23.3V12.675L22.625 12.125C22.55 12.075 22.45 12.075 22.375 12.15L21.7 12.825C21.625 12.9 21.625 13 21.675 13.075L22.275 13.8C21.925 14.3 21.675 14.9 21.575 15.5L20.625 15.6C20.525 15.6 20.45 15.7 20.45 15.775V16.725C20.45 16.825 20.525 16.9 20.625 16.9L21.575 17C21.675 17.6 21.925 18.2 22.275 18.7L21.675 19.425C21.625 19.5 21.625 19.6 21.7 19.675L22.375 20.35C22.45 20.425 22.55 20.425 22.625 20.375L23.3 19.825V25.125H8.97499V24H11.925C12.025 24 12.125 23.925 12.125 23.8V21.775C12.125 21.675 12.05 21.575 11.925 21.575H6.04999V21C6.04999 20.925 5.99999 20.85 5.92499 20.825C5.84999 20.8 5.77499 20.8 5.72499 20.875L3.94999 22.65C3.87499 22.725 3.87499 22.85 3.94999 22.925L5.72499 24.7C5.74999 24.725 5.79999 24.75 5.84999 24.75C5.87499 24.75 5.89999 24.75 5.92499 24.725C5.99999 24.7 6.04999 24.625 6.04999 24.55V23.975H8.59999V27.55C8.59999 28.1 9.04999 28.55 9.59999 28.55H22.7C23.25 28.55 23.7 28.1 23.7 27.55V19.975C24.125 20.225 24.6 20.4 25.075 20.475L25.175 21.425C25.175 21.525 25.275 21.6 25.35 21.6H26.3C26.4 21.6 26.475 21.525 26.475 21.425L26.575 20.475C27.175 20.375 27.775 20.125 28.275 19.775L29 20.375C29.075 20.425 29.175 20.425 29.25 20.35L29.925 19.675C30 19.6 30 19.5 29.95 19.425L29.35 18.7C29.7 18.2 29.95 17.6 30.05 17L31 16.9C31.1 16.9 31.175 16.8 31.175 16.725V15.775C31.15 15.675 31.075 15.6 30.975 15.6ZM10.25 17.925C10.35 17.925 10.45 17.85 10.45 17.725V17.4L11.75 18.75L10.425 20.075V19.775C10.425 19.725 10.4 19.675 10.375 19.65C10.35 19.625 10.3 19.6 10.25 19.6H4.34999V17.95H10.25V17.925ZM5.84999 23.625C5.74999 23.625 5.64999 23.7 5.64999 23.825V24.15L4.32499 22.825L5.64999 21.5V21.8C5.64999 21.85 5.67499 21.9 5.69999 21.925C5.72499 21.95 5.77499 21.975 5.82499 21.975H11.7V23.625H5.84999ZM8.97499 7V4.925C8.97499 4.575 9.24999 4.325 9.59999 4.325H22.7C23.05 4.325 23.325 4.6 23.325 4.925V7H8.97499ZM22.675 28.175H9.59999C9.24999 28.175 8.97499 27.9 8.97499 27.55V25.5H23.3V27.575C23.3 27.9 23.025 28.175 22.675 28.175ZM30.775 16.55L29.85 16.65C29.775 16.65 29.7 16.725 29.675 16.8C29.575 17.45 29.325 18.075 28.925 18.6C28.875 18.675 28.875 18.775 28.925 18.825L29.5 19.55L29.075 19.975L28.35 19.4C28.275 19.35 28.175 19.35 28.125 19.4C27.6 19.8 26.975 20.05 26.325 20.15C26.25 20.15 26.175 20.225 26.175 20.325L26.075 21.25H25.5L25.4 20.325C25.4 20.25 25.325 20.175 25.25 20.15C24.6 20.05 23.975 19.8 23.45 19.4C23.375 19.35 23.275 19.35 23.225 19.4L22.5 19.975L22.075 19.55L22.65 18.825C22.7 18.75 22.7 18.65 22.65 18.6C22.25 18.075 22 17.45 21.9 16.8C21.9 16.725 21.825 16.65 21.725 16.65L20.8 16.55V15.95L21.725 15.85C21.8 15.85 21.875 15.775 21.9 15.7C22 15.05 22.25 14.425 22.65 13.9C22.7 13.825 22.7 13.725 22.65 13.675L22.075 12.95L22.5 12.525L23.225 13.1C23.3 13.15 23.4 13.15 23.45 13.1C23.975 12.7 24.6 12.45 25.25 12.35C25.325 12.35 25.4 12.275 25.4 12.175L25.5 11.25H26.1L26.2 12.175C26.2 12.25 26.275 12.325 26.35 12.35C27 12.45 27.625 12.7 28.15 13.1C28.225 13.15 28.325 13.15 28.375 13.1L29.1 12.525L29.525 12.95L28.95 13.675C28.9 13.75 28.9 13.85 28.95 13.9C29.35 14.425 29.6 15.05 29.7 15.7C29.7 15.775 29.775 15.85 29.875 15.85L30.8 15.95V16.55H30.775Z" stroke="#29AAE1" stroke-width="0.6" mask="url(#path-1-outside-1)"/>
<path d="M12.0502 15.3332L12.0584 15.3456L12.0689 15.3561L12.5689 15.8561C12.6994 15.9866 12.8797 15.9855 13.0082 15.8998L13.0086 15.9003L13.0194 15.8916L13.46 15.5349C13.7981 15.7453 14.171 15.899 14.5626 15.9967L14.6252 16.5597C14.6282 16.6572 14.6777 16.7353 14.7335 16.786C14.7891 16.8365 14.8674 16.875 14.95 16.875H15.675C15.8547 16.875 15.9951 16.7377 15.9999 16.5595L16.0618 16.0022C16.4584 15.9213 16.8352 15.765 17.1757 15.5332L17.6643 15.8731L17.6643 15.8732L17.6668 15.8748C17.7953 15.9605 17.9756 15.9616 18.1061 15.8311L18.6061 15.3311C18.7366 15.2006 18.7355 15.0203 18.6498 14.8918L18.6503 14.8914L18.6416 14.8806L18.2849 14.44C18.4953 14.1019 18.649 13.729 18.7467 13.3374L19.3097 13.2749C19.4072 13.2718 19.4853 13.2223 19.536 13.1665C19.5865 13.1109 19.625 13.0326 19.625 12.95V12.225C19.625 12.0453 19.4877 11.9049 19.3095 11.9001L18.7522 11.8382C18.6719 11.4443 18.5171 11.07 18.2879 10.7313L18.6416 10.2944L18.6421 10.2948L18.6498 10.2832C18.7355 10.1547 18.7365 9.97442 18.6061 9.84394L18.1061 9.34394C17.9756 9.21345 17.7953 9.21453 17.6668 9.3002L17.6664 9.29966L17.6556 9.30842L17.215 9.66513C16.8769 9.45471 16.504 9.30099 16.1124 9.2033L16.0498 8.64032C16.0468 8.54281 15.9973 8.46472 15.9415 8.41401C15.8859 8.36347 15.8076 8.32501 15.725 8.32501H15C14.8203 8.32501 14.6799 8.46229 14.6751 8.64055L14.6132 9.19781C14.2193 9.27812 13.8449 9.43287 13.5063 9.6621L13.0694 9.30842L13.0698 9.30792L13.0582 9.3002C12.9297 9.21453 12.7494 9.21345 12.6189 9.34394L12.1189 9.84394C11.9885 9.97442 11.9895 10.1547 12.0752 10.2832L12.0747 10.2836L12.0834 10.2944L12.4401 10.735C12.2297 11.0731 12.076 11.446 11.9783 11.8376L11.4153 11.9002C11.3178 11.9033 11.2397 11.9527 11.189 12.0085C11.1385 12.0641 11.1 12.1424 11.1 12.225V12.95C11.1 13.1297 11.2373 13.2701 11.4155 13.2749L11.9728 13.3368C12.0531 13.7305 12.2077 14.1047 12.4367 14.4432L12.063 14.9001C11.9964 14.97 11.9728 15.0551 11.9785 15.1357C11.984 15.2132 12.0159 15.2817 12.0502 15.3332ZM13.1143 14.6722L13.12 14.6655L13.1248 14.6582C13.1663 14.5959 13.1875 14.5232 13.1875 14.4531C13.1875 14.388 13.1686 14.3126 13.115 14.2534C12.8324 13.8746 12.6474 13.4541 12.5999 12.991C12.5946 12.8266 12.4458 12.705 12.2849 12.7002L11.775 12.6413V12.5337L12.2854 12.4748C12.3674 12.4716 12.4354 12.4312 12.4816 12.3896C12.5309 12.3453 12.5711 12.2861 12.5923 12.2224L12.5962 12.2107L12.5982 12.1984C12.6701 11.7429 12.8373 11.292 13.12 10.915L13.1202 10.9151L13.1248 10.9082C13.1663 10.8459 13.1875 10.7732 13.1875 10.7031C13.1875 10.6364 13.1677 10.559 13.1112 10.4992L12.7789 10.1083L12.8583 10.0289L13.2529 10.3643L13.2595 10.37L13.2668 10.3748C13.3291 10.4163 13.4018 10.4375 13.4719 10.4375C13.537 10.4375 13.6125 10.4186 13.6717 10.365C14.0504 10.0824 14.4709 9.89739 14.934 9.84986C15.0984 9.84461 15.22 9.69582 15.2249 9.53492L15.2837 9.02501H15.3913L15.4502 9.53536C15.4534 9.61745 15.4938 9.68537 15.5354 9.7316C15.5797 9.78087 15.6389 9.82108 15.7026 9.84231L15.7143 9.84623L15.7266 9.84817C16.1821 9.92009 16.633 10.0873 17.01 10.37L17.0099 10.3702L17.0168 10.3748C17.0791 10.4163 17.1518 10.4375 17.2219 10.4375C17.2886 10.4375 17.366 10.4177 17.4258 10.3612L17.8167 10.0289L17.8961 10.1083L17.5607 10.5029L17.555 10.5095L17.5502 10.5168C17.5087 10.5791 17.4875 10.6518 17.4875 10.7219C17.4875 10.787 17.5064 10.8625 17.56 10.9217C17.8426 11.3004 18.0276 11.7209 18.0751 12.184C18.0804 12.3484 18.2292 12.47 18.3901 12.4749L18.9 12.5337V12.6413L18.3896 12.7002C18.3076 12.7034 18.2396 12.7438 18.1934 12.7854C18.1441 12.8297 18.1039 12.8889 18.0827 12.9526L18.0788 12.9643L18.0768 12.9766C18.0049 13.4321 17.8377 13.883 17.555 14.26L17.5548 14.2599L17.5502 14.2668C17.5087 14.3291 17.4875 14.4018 17.4875 14.4719C17.4875 14.5386 17.5073 14.616 17.5638 14.6758L17.8961 15.0668L17.8167 15.1461L17.4221 14.8107L17.4155 14.8051L17.4082 14.8002C17.3459 14.7587 17.2732 14.7375 17.2031 14.7375C17.138 14.7375 17.0625 14.7564 17.0033 14.81C16.6246 15.0926 16.2041 15.2776 15.741 15.3251C15.5766 15.3304 15.455 15.4792 15.4501 15.6401L15.3913 16.15H15.2837L15.2248 15.6396C15.2216 15.5576 15.1812 15.4896 15.1396 15.4434C15.0953 15.3941 15.0361 15.3539 14.9724 15.3327L14.9607 15.3288L14.9484 15.3268C14.4929 15.2549 14.042 15.0877 13.665 14.805L13.6651 14.8048L13.6582 14.8002C13.5959 14.7587 13.5232 14.7375 13.4531 14.7375C13.3864 14.7375 13.309 14.7573 13.2492 14.8138L12.8583 15.1461L12.7789 15.0668L13.1143 14.6722Z" fill="#29AAE1" stroke="#29AAE1" stroke-width="0.3"/>
<path d="M18.075 26.125H14.2C13.8171 26.125 13.5 26.4422 13.5 26.825V26.9C13.5 27.2828 13.8171 27.6 14.2 27.6H18.075C18.4578 27.6 18.775 27.2828 18.775 26.9V26.825C18.775 26.4422 18.4578 26.125 18.075 26.125ZM18.1 26.9C18.1 26.9115 18.0962 26.9167 18.0939 26.9189C18.0917 26.9212 18.0865 26.925 18.075 26.925H14.2C14.1885 26.925 14.1833 26.9212 14.1811 26.9189C14.1788 26.9167 14.175 26.9115 14.175 26.9V26.825C14.175 26.8135 14.1788 26.8083 14.1811 26.8061C14.1833 26.8038 14.1885 26.8 14.2 26.8H18.075C18.0865 26.8 18.0917 26.8038 18.0939 26.8061C18.0962 26.8083 18.1 26.8135 18.1 26.825V26.9Z" fill="#29AAE1" stroke="#29AAE1" stroke-width="0.3"/>
<path d="M18.025 5.625V5.61015L18.0221 5.59558C18.0052 5.51135 17.9686 5.42917 17.9013 5.36755C17.8322 5.30418 17.7443 5.275 17.65 5.275H14.625C14.4547 5.275 14.275 5.40514 14.275 5.625C14.275 5.79529 14.4051 5.975 14.625 5.975H17.675C17.8453 5.975 18.025 5.84486 18.025 5.625Z" fill="#29AAE1" stroke="#29AAE1" stroke-width="0.3"/>
<path d="M25.825 13.175C24.1163 13.175 22.75 14.568 22.75 16.25C22.75 17.9587 24.143 19.325 25.825 19.325C27.5337 19.325 28.9 17.932 28.9 16.25C28.9 14.5672 27.5078 13.175 25.825 13.175ZM25.825 18.65C24.5078 18.65 23.425 17.5672 23.425 16.25C23.425 14.9328 24.5078 13.85 25.825 13.85C27.1422 13.85 28.225 14.9328 28.225 16.25C28.225 17.5672 27.1422 18.65 25.825 18.65Z" fill="#29AAE1" stroke="#29AAE1" stroke-width="0.3"/>
<path d="M15.35 14.85C16.6078 14.85 17.625 13.8328 17.625 12.575C17.625 11.3172 16.6078 10.3 15.35 10.3C14.0921 10.3 13.075 11.3172 13.075 12.575C13.075 13.8328 14.0921 14.85 15.35 14.85ZM15.35 11C16.2185 11 16.95 11.7092 16.95 12.6C16.95 13.4686 16.2407 14.2 15.35 14.2C14.4814 14.2 13.75 13.4908 13.75 12.6C13.75 11.7078 14.4578 11 15.35 11Z" fill="#29AAE1" stroke="#29AAE1" stroke-width="0.3"/>
</svg>
