<svg width="32" height="32" viewBox="0 0 32 32" fill="none" xmlns="http://www.w3.org/2000/svg">
<path d="M10.9324 20.1625L10.9216 11.6195C10.9216 11.6195 10.9216 11.6194 10.9216 11.6194C10.9215 11.5383 10.9405 11.4583 10.9769 11.3858C10.977 11.3857 10.977 11.3856 10.977 11.3856L12.4884 8.35592L12.6104 8.4168L12.4884 8.35592C12.532 8.2686 12.599 8.19515 12.682 8.14381C12.765 8.09247 12.8606 8.06527 12.9582 8.06527C13.0558 8.06527 13.1514 8.09247 13.2344 8.14381C13.3174 8.19515 13.3844 8.2686 13.428 8.35591L14.9393 11.3853C14.9393 11.3853 14.9393 11.3853 14.9393 11.3853L14.9395 11.3856L14.8053 11.4526C14.8312 11.5044 14.8447 11.5616 14.8447 11.6196L10.9324 20.1625ZM10.9324 20.1625H5.5875V7.7125H26.4125V20.1625H21.0875L21.0875 8.82881L21.0875 8.82674C21.0855 8.68608 21.0295 8.55157 20.931 8.45117C20.8324 8.35076 20.699 8.29217 20.5584 8.28758L20.5584 8.2875H20.5535H16.8459C16.5329 8.2875 16.35 8.56406 16.35 8.82881V20.1625M10.9324 20.1625H16.35M16.35 20.1625H14.9838H16.35ZM4.69127 6.81627L4.79734 6.92234L4.69127 6.81627C4.59281 6.91473 4.5375 7.04826 4.5375 7.1875V20.6875C4.5375 20.8267 4.59281 20.9603 4.69127 21.0587C4.78973 21.1572 4.92326 21.2125 5.0625 21.2125H26.9375C27.0767 21.2125 27.2103 21.1572 27.3087 21.0587C27.4072 20.9603 27.4625 20.8267 27.4625 20.6875V7.1875C27.4625 7.04826 27.4072 6.91473 27.3087 6.81627C27.2103 6.71781 27.0767 6.6625 26.9375 6.6625H5.0625C4.92326 6.6625 4.78973 6.71781 4.69127 6.81627ZM11.9806 18.6625L11.9721 12.15H13.944L13.9356 18.6625H11.9806ZM13.621 11.1H12.2951L12.9581 9.77091L13.621 11.1ZM11.9825 20.1625L11.9819 19.7125H13.9343L13.9338 20.1625H11.9825ZM17.4 18.8375H17.5887C17.7279 18.8375 17.8615 18.7822 17.9599 18.6837C18.0584 18.5853 18.1137 18.4517 18.1137 18.3125C18.1137 18.1733 18.0584 18.0397 17.9599 17.9413C17.8615 17.8428 17.7279 17.7875 17.5887 17.7875H17.4V17.2125H18.1225C18.2617 17.2125 18.3953 17.1572 18.4937 17.0587C18.5922 16.9603 18.6475 16.8267 18.6475 16.6875C18.6475 16.5483 18.5922 16.4147 18.4937 16.3163C18.3953 16.2178 18.2617 16.1625 18.1225 16.1625H17.4V15.5875H17.5867C17.7259 15.5875 17.8595 15.5322 17.9579 15.4337C18.0564 15.3353 18.1117 15.2017 18.1117 15.0625C18.1117 14.9233 18.0564 14.7897 17.9579 14.6913C17.8595 14.5928 17.7259 14.5375 17.5867 14.5375H17.4V13.9625H18.1225C18.2617 13.9625 18.3953 13.9072 18.4937 13.8087C18.5922 13.7103 18.6475 13.5767 18.6475 13.4375C18.6475 13.2983 18.5922 13.1647 18.4937 13.0663C18.3953 12.9678 18.2617 12.9125 18.1225 12.9125H17.4V12.3375H17.5887C17.7279 12.3375 17.8615 12.2822 17.9599 12.1837C18.0584 12.0853 18.1137 11.9517 18.1137 11.8125C18.1137 11.6733 18.0584 11.5397 17.9599 11.4413C17.8615 11.3428 17.7279 11.2875 17.5887 11.2875H17.4V10.7125H18.1205C18.2597 10.7125 18.3933 10.6572 18.4917 10.5587C18.5902 10.4603 18.6455 10.3267 18.6455 10.1875C18.6455 10.0483 18.5902 9.91473 18.4917 9.81627C18.3933 9.71781 18.2597 9.6625 18.1205 9.6625H17.4V9.3375H20.0375V20.1625H17.4V18.8375Z" fill="#29AAE1" stroke="#29AAE1" stroke-width="0.3"/>
<path d="M29.9625 22.475H30.7695C31.0817 22.475 31.275 22.7601 31.275 23.0259V24.975V24.9756H31.125C31.1265 25.3561 31.0529 25.7332 30.9082 26.0851C30.7636 26.437 30.5508 26.7569 30.2822 27.0264C30.0135 27.2958 29.6942 27.5095 29.3427 27.6551C28.9911 27.8008 28.6143 27.8755 28.2338 27.875L29.9625 22.475ZM29.9625 22.475L29.9625 7.02437L29.9625 7.02378C29.9593 6.21272 29.6343 5.4361 29.0589 4.86446C28.4836 4.29287 27.705 3.97297 26.894 3.97499M29.9625 22.475L26.8942 4.12499M0.724994 24.9753V23.0259C0.724994 22.7601 0.918264 22.475 1.23049 22.475H2.03749V7.02437V7.02378C2.0407 6.21272 2.36567 5.4361 2.94104 4.86446C3.51636 4.29287 4.295 3.97297 5.10599 3.97499M0.724994 24.9753L5.1058 4.12499M0.724994 24.9753V24.9756H0.874994L0.724994 24.9753ZM5.10599 3.97499C5.10606 3.97499 5.10612 3.97499 5.10619 3.97499L5.1058 4.12499M5.10599 3.97499H5.1058V4.12499M5.10599 3.97499H26.894M5.1058 4.12499H26.8942M26.894 3.97499C26.8939 3.97499 26.8939 3.97499 26.8938 3.97499L26.8942 4.12499M26.894 3.97499H26.8942V4.12499M3.76637 28.025H28.2336L1.71781 27.0264C1.98649 27.2958 2.30577 27.5095 2.6573 27.6551C3.00883 27.8008 3.38568 27.8755 3.76618 27.875V28.025H3.76637ZM2.18749 22.475V22.625H2.03749L2.18749 22.475ZM28.9125 7.02511L28.9125 22.475H19.7199V22.4748L19.713 22.4751C19.64 22.4785 19.5685 22.4967 19.5028 22.5286C19.438 22.56 19.3801 22.6042 19.3327 22.6584L18.8198 23.2081L18.8196 23.2083C18.6308 23.4115 18.402 23.5734 18.1475 23.6838C17.8931 23.7942 17.6186 23.8508 17.3412 23.85H17.3407L14.6595 23.85L14.6584 23.85C14.3815 23.8519 14.1072 23.7965 13.8528 23.6871C13.5987 23.5778 13.3699 23.4172 13.181 23.2152C13.1807 23.2149 13.1805 23.2147 13.1803 23.2145L12.6679 22.6522C12.6678 22.652 12.6676 22.6518 12.6674 22.6516C12.619 22.5976 12.56 22.554 12.4941 22.5237C12.4279 22.4932 12.3562 22.4766 12.2834 22.475L12.2834 22.475H12.2801H3.08749V7.02473C3.09022 6.49216 3.3042 5.98243 3.68245 5.60749C4.06078 5.23246 4.57252 5.02295 5.10523 5.02499H5.1058L26.8942 5.025L26.8947 5.02499C27.4275 5.02295 27.9392 5.23246 28.3175 5.60749C28.6958 5.98243 28.9097 6.49216 28.9125 7.02473C28.9125 7.02486 28.9125 7.02498 28.9125 7.02511ZM5.1058 4.87499H26.8942C27.4666 4.8728 28.0166 5.09794 28.4231 5.50096C28.8297 5.90398 29.0597 6.45191 29.0625 7.02437L5.1058 4.87499ZM30.225 24.9756L30.225 24.9765C30.2265 25.2387 30.1761 25.4987 30.0767 25.7413C29.9773 25.984 29.8308 26.2046 29.6458 26.3904C29.4607 26.5761 29.2407 26.7235 28.9984 26.8238C28.7561 26.9241 28.4963 26.9755 28.2341 26.975H28.2338H3.76618H3.76587C3.50364 26.9755 3.24389 26.9241 3.0016 26.8238C2.75932 26.7235 2.5393 26.5761 2.35422 26.3904C2.16914 26.2046 2.02268 25.984 1.92326 25.7413C1.82385 25.4987 1.77346 25.2387 1.77499 24.9765V24.9756V23.525H12.05L12.4087 23.9141L12.4088 23.9143C12.6958 24.2247 13.0438 24.4725 13.431 24.6421C13.8182 24.8118 14.2363 24.8995 14.6591 24.9H14.6592H17.3405H17.3406C17.7634 24.8996 18.1816 24.8119 18.569 24.6422C18.9563 24.4726 19.3044 24.2248 19.5914 23.9143L19.5915 23.9141L19.9502 23.525H30.225L30.225 24.9756Z" fill="#29AAE1" stroke="#29AAE1" stroke-width="0.3"/>
</svg>
